<svg width="314" height="213" viewBox="0 0 314 213" fill="none" xmlns="http://www.w3.org/2000/svg">
<g clip-path="url(#clip0_754_31)">
<path d="M144.868 0L181.847 92.1064L202.605 23.601L144.868 0Z" fill="#F7A800"/>
<path d="M279.288 61.3868L314 63.5724L286.588 23.6772L279.288 61.3868Z" fill="#7CB92C"/>
<path d="M269.185 82.1446L281.14 23.4209L235.488 46.5671L269.185 82.1446Z" fill="#0099A8"/>
<path d="M264.488 85.5765L208.119 25.5305L187.767 92.1065L264.488 85.5765Z" fill="#ED7782"/>
<path d="M266.142 91.0012L187.716 97.9799L197.346 150.189L266.142 91.0012Z" fill="#662382"/>
<path d="M151.041 213L198.7 189.623L182.627 98.0706L151.041 213Z" fill="#0054A2"/>
<path d="M173.047 85.5682L170.402 78.9939H135.266V85.6176L144.747 85.6052V111.983H152.331V85.595L173.047 85.5682ZM141.232 113.323C138.941 112.479 136.512 112.071 134.071 112.121H122.851V142.806H134.071C136.519 142.858 138.954 142.422 141.232 141.521C143.159 140.743 144.907 139.578 146.369 138.099C147.716 136.726 148.765 135.088 149.451 133.289C150.117 131.562 150.46 129.728 150.465 127.877V126.965C150.473 125.045 150.129 123.141 149.451 121.345C148.774 119.561 147.723 117.942 146.369 116.598C144.902 115.16 143.153 114.044 141.232 113.321M141.149 120.827C141.96 121.618 142.583 122.581 142.971 123.646C143.401 124.857 143.609 126.135 143.587 127.419C143.604 128.684 143.395 129.941 142.971 131.131C142.583 132.208 141.961 133.186 141.149 133.992C140.321 134.797 139.334 135.418 138.251 135.816C137.031 136.26 135.74 136.477 134.443 136.458H129.64V118.465H134.443C135.737 118.447 137.025 118.65 138.251 119.066C139.333 119.437 140.321 120.039 141.149 120.829M125.506 107.022H131.792V78.9939H125.506V107.022ZM121.191 107.701C122.116 106.202 122.583 104.464 122.534 102.702V102.074C122.63 100.288 122.091 98.5243 121.012 97.0981C120.172 96.1525 119.126 95.4132 117.955 94.9372C118.588 94.5328 119.159 94.0377 119.65 93.4678C120.733 92.0773 121.28 90.3426 121.191 88.5811V87.9092C121.261 86.6214 121.024 85.3353 120.499 84.1578C119.973 82.9803 119.175 81.9455 118.169 81.1394C116.155 79.5554 113.268 78.7635 109.509 78.7635H97.2454V111.983H110.806C113.006 112.048 115.197 111.675 117.251 110.885C118.859 110.253 120.234 109.141 121.191 107.701ZM113.942 88.5389C113.994 89.5788 113.659 90.6012 113.002 91.4077C112.602 91.7971 112.123 92.095 111.598 92.2808C111.072 92.4667 110.513 92.536 109.958 92.4841H104.41V84.5042H109.958C110.513 84.4523 111.072 84.5216 111.598 84.7074C112.123 84.8933 112.602 85.1912 113.002 85.5805C113.669 86.4169 114.003 87.4704 113.942 88.5389ZM115.285 102.122C115.357 103.234 114.987 104.329 114.257 105.171C113.844 105.553 113.357 105.846 112.825 106.031C112.294 106.216 111.73 106.29 111.169 106.247H104.411V98.0407H111.169C111.728 97.9979 112.29 98.0692 112.821 98.2503C113.352 98.4314 113.84 98.7186 114.257 99.0943C114.62 99.5058 114.897 99.9851 115.073 100.504C115.25 101.024 115.321 101.573 115.285 102.121M97.4201 117.617C96.4122 116.14 94.9788 115.005 93.3107 114.364C91.3025 113.591 89.1629 113.218 87.012 113.266H75.5767V142.653H82.1147V133.309H86.8795L93.2378 142.653H100.812L93.3734 132.208C95.0014 131.585 96.4054 130.487 97.4037 129.057C98.4236 127.457 98.9315 125.583 98.8594 123.686V123.047C98.932 121.134 98.431 119.242 97.4211 117.616M92.2382 123.482C92.2564 124.336 92.0574 125.181 91.6598 125.937C91.286 126.63 90.7179 127.199 90.0253 127.574C89.2568 127.975 88.3992 128.174 87.5329 128.152H82.1116V118.809H87.5329C88.3993 118.788 89.2568 118.987 90.0253 119.388C90.7177 119.763 91.2858 120.332 91.6598 121.025C92.0573 121.782 92.2563 122.627 92.2382 123.482ZM88.5284 108.677H95.4311L85.28 78.9888H74.5195L64.7341 108.677H71.3933L73.748 101.317H86.1193L88.5284 108.677ZM84.3091 95.7902H75.5171L79.1457 84.4435H80.5942L84.3091 95.7902ZM65.1234 98.23C65.7142 96.6712 66.0272 95.0207 66.048 93.3536V92.5088C66.0431 90.7434 65.7184 88.9935 65.0896 87.3442C64.4467 85.6341 63.484 84.0625 62.253 82.7138C60.9437 81.2906 59.3505 80.159 57.5765 79.3922C55.5267 78.524 53.317 78.0993 51.092 78.1461C48.8689 78.1008 46.6612 78.5262 44.6135 79.3942C42.8394 80.1608 41.2461 81.2925 39.937 82.7158C38.7071 84.0617 37.7504 85.6344 37.12 87.3463C36.5029 88.9982 36.1849 90.7471 36.181 92.5108V93.3556C36.1997 95.0208 36.5045 96.6704 37.082 98.232C37.7023 99.9534 38.632 101.546 39.825 102.932C41.1068 104.422 42.696 105.616 44.483 106.431C46.5625 107.356 48.8205 107.808 51.095 107.755C53.3678 107.805 55.6235 107.352 57.7009 106.427C59.4878 105.612 61.077 104.418 62.3588 102.928C63.5528 101.539 64.4878 99.9456 65.1193 98.2248M59.6744 92.9646C59.683 94.141 59.4884 95.3101 59.099 96.42C58.7288 97.473 58.1486 98.4396 57.3937 99.261C56.6317 100.086 55.7043 100.74 54.6723 101.181C53.5377 101.656 52.3174 101.891 51.0878 101.872C49.8645 101.893 48.6503 101.657 47.523 101.181C46.498 100.737 45.5773 100.083 44.82 99.261C44.0648 98.4398 43.4846 97.4731 43.1146 96.42C42.7253 95.31 42.5307 94.141 42.5393 92.9646C42.5257 91.7438 42.7203 90.5297 43.1146 89.3745C43.4787 88.3185 44.0596 87.3507 44.82 86.5334C45.5766 85.7249 46.4986 85.0896 47.523 84.6709C48.6566 84.2199 49.8682 83.9981 51.0878 84.0185C52.3075 83.9983 53.519 84.2201 54.6527 84.6709C55.6769 85.0899 56.5988 85.7252 57.3557 86.5334C58.1173 87.3533 58.7042 88.3199 59.0806 89.3745C59.4874 90.527 59.6883 91.7423 59.6744 92.9646ZM27.2616 109.898H34.1089V78.9939H24.3871L17.4135 96.351H16.6101L9.55119 78.9939H-0.00311279V109.898H6.33666V86.3111L13.4798 103.632H20.0733L27.2585 86.0477L27.2616 109.898ZM6.53085 114.624H0.0523804L6.95204 142.653H16.4971L19.9305 125.748L23.6289 142.653H33.3661L39.4993 114.624H33.3661L28.8324 137.546L27.8411 137.524L23.2026 115.661H16.7632L12.7514 137.546L11.7312 137.535L6.53085 114.624ZM40.3973 120.118C39.694 122.001 39.3315 123.994 39.3268 126.005V126.968C39.3485 128.865 39.696 130.745 40.3541 132.524C41.06 134.488 42.1188 136.305 43.4783 137.886C44.9398 139.583 46.7511 140.942 48.7876 141.87C51.1581 142.924 53.7322 143.44 56.3253 143.38C58.9188 143.441 61.4936 142.926 63.8649 141.872C65.9014 140.944 67.7128 139.585 69.1742 137.888C70.5351 136.304 71.601 134.488 72.321 132.526C72.9923 130.75 73.3474 128.869 73.37 126.97V126.007C73.3644 123.994 72.994 122 72.2768 120.12C71.5435 118.172 70.4459 116.381 69.0427 114.845C67.55 113.223 65.7339 111.934 63.7119 111.059C61.3776 110.069 58.8609 109.583 56.3263 109.633C53.7918 109.582 51.2751 110.067 48.9407 111.056C46.9182 111.93 45.1016 113.22 43.6087 114.842C42.2073 116.375 41.1167 118.167 40.3973 120.117M46.5808 126.529C46.5651 125.138 46.7868 123.754 47.2363 122.437C47.6514 121.233 48.3139 120.13 49.1811 119.198C50.044 118.276 51.0952 117.552 52.2631 117.075C53.5555 116.561 54.9368 116.308 56.3273 116.331C57.7177 116.308 59.099 116.561 60.3914 117.075C61.5591 117.553 62.6103 118.277 63.4735 119.198C64.3419 120.133 65.0109 121.235 65.4398 122.437C65.9035 123.751 66.1327 125.136 66.1169 126.529C66.1268 127.87 65.9051 129.203 65.4615 130.468C65.0391 131.671 64.3767 132.774 63.5146 133.712C62.6461 134.652 61.5887 135.398 60.412 135.9C59.1189 136.442 57.7279 136.711 56.3263 136.689C54.9315 136.712 53.5472 136.444 52.2621 135.9C51.0934 135.395 50.0435 134.649 49.1801 133.712C48.319 132.775 47.6572 131.673 47.2353 130.473C46.7915 129.207 46.5698 127.875 46.5798 126.534M109.425 114.627H103.138V142.653H120.388V137.124H109.425V114.627ZM171.99 103.372H162.641V111.985H169.697L171.99 103.372Z" fill="#7CB92C"/>
</g>
<defs>
<clipPath id="clip0_754_31">
<rect width="314" height="213" fill="white"/>
</clipPath>
</defs>
</svg>
