<svg width="369" height="64" viewBox="0 0 369 64" fill="none" xmlns="http://www.w3.org/2000/svg">
<rect width="369" height="64" fill="#F5F5F5"/>
<rect width="1440" height="4967" transform="translate(-144 -1428)" fill="white"/>
<rect y="0.00012207" width="374" height="64" fill="#0099A8"/>
<path d="M20.84 42.0001L28.73 20.1001H33.71L41.84 42.0001H38.81L31.46 22.0201L32.9 22.7401H29.36L30.89 22.0201L23.78 42.0001H20.84ZM25.55 35.4601L26.54 32.8201H35.99L36.98 35.4601H25.55ZM45.4358 42.0001V25.9801H47.7158V32.8501H47.3558C47.3558 31.2701 47.5658 29.9401 47.9858 28.8601C48.4258 27.7601 49.0858 26.9301 49.9658 26.3701C50.8458 25.7901 51.9558 25.5001 53.2958 25.5001H53.4158C55.4358 25.5001 56.9258 26.1301 57.8858 27.3901C58.8658 28.6501 59.3558 30.4701 59.3558 32.8501V42.0001H56.4758V32.2501C56.4758 31.0101 56.1258 30.0201 55.4258 29.2801C54.7258 28.5201 53.7658 28.1401 52.5458 28.1401C51.2858 28.1401 50.2658 28.5301 49.4858 29.3101C48.7058 30.0901 48.3158 31.1301 48.3158 32.4301V42.0001H45.4358ZM70.6852 48.2401C69.9452 48.2401 69.1952 48.2101 68.4352 48.1501C67.6952 48.0901 66.9852 48.0101 66.3052 47.9101V45.4801C67.0252 45.5801 67.7752 45.6601 68.5552 45.7201C69.3552 45.8001 70.1052 45.8401 70.8052 45.8401C72.2652 45.8401 73.4252 45.6401 74.2852 45.2401C75.1652 44.8601 75.7952 44.2501 76.1752 43.4101C76.5752 42.5901 76.7752 41.5301 76.7752 40.2301V37.1701L77.7352 34.8901C77.6752 36.5101 77.3352 37.8601 76.7152 38.9401C76.0952 40.0001 75.2852 40.8001 74.2852 41.3401C73.3052 41.8601 72.2152 42.1201 71.0152 42.1201C69.8952 42.1201 68.8652 41.9101 67.9252 41.4901C67.0052 41.0501 66.2052 40.4501 65.5252 39.6901C64.8652 38.9301 64.3452 38.0601 63.9652 37.0801C63.6052 36.0801 63.4252 35.0301 63.4252 33.9301V33.3901C63.4252 32.2701 63.6152 31.2301 63.9952 30.2701C64.3752 29.2901 64.9052 28.4401 65.5852 27.7201C66.2652 27.0001 67.0752 26.4401 68.0152 26.0401C68.9752 25.6401 70.0252 25.4401 71.1652 25.4401C72.5052 25.4401 73.6852 25.7301 74.7052 26.3101C75.7252 26.8701 76.5252 27.7001 77.1052 28.8001C77.7052 29.8801 78.0352 31.2101 78.0952 32.7901L77.2552 32.8201V25.9801H79.5352V40.1101C79.5352 42.0301 79.2352 43.5801 78.6352 44.7601C78.0552 45.9601 77.1152 46.8401 75.8152 47.4001C74.5352 47.9601 72.8252 48.2401 70.6852 48.2401ZM71.5552 39.4801C72.5152 39.4801 73.3852 39.2701 74.1652 38.8501C74.9652 38.4301 75.5952 37.8301 76.0552 37.0501C76.5352 36.2501 76.7752 35.3001 76.7752 34.2001V32.8201C76.7752 31.7401 76.5252 30.8301 76.0252 30.0901C75.5452 29.3501 74.9152 28.7901 74.1352 28.4101C73.3552 28.0301 72.5052 27.8401 71.5852 27.8401C70.5452 27.8401 69.6252 28.0801 68.8252 28.5601C68.0252 29.0401 67.4052 29.7201 66.9652 30.6001C66.5252 31.4601 66.3052 32.4801 66.3052 33.6601C66.3052 34.8401 66.5252 35.8701 66.9652 36.7501C67.4252 37.6301 68.0452 38.3101 68.8252 38.7901C69.6252 39.2501 70.5352 39.4801 71.5552 39.4801ZM91.6794 42.5401C90.2794 42.5401 89.0694 42.3001 88.0494 41.8201C87.0294 41.3401 86.1994 40.7101 85.5594 39.9301C84.9194 39.1301 84.4394 38.2401 84.1194 37.2601C83.8194 36.2801 83.6694 35.2801 83.6694 34.2601V33.7201C83.6694 32.6801 83.8194 31.6701 84.1194 30.6901C84.4394 29.7101 84.9194 28.8301 85.5594 28.0501C86.1994 27.2501 87.0094 26.6201 87.9894 26.1601C88.9894 25.6801 90.1594 25.4401 91.4994 25.4401C93.2394 25.4401 94.6694 25.8201 95.7894 26.5801C96.9294 27.3201 97.7694 28.2801 98.3094 29.4601C98.8694 30.6401 99.1494 31.9001 99.1494 33.2401V34.5301H84.9294V32.3701H97.0494L96.3894 33.5401C96.3894 32.4001 96.2094 31.4201 95.8494 30.6001C95.4894 29.7601 94.9494 29.1101 94.2294 28.6501C93.5094 28.1901 92.5994 27.9601 91.4994 27.9601C90.3594 27.9601 89.4094 28.2201 88.6494 28.7401C87.9094 29.2601 87.3494 29.9701 86.9694 30.8701C86.6094 31.7701 86.4294 32.8101 86.4294 33.9901C86.4294 35.1301 86.6094 36.1601 86.9694 37.0801C87.3494 37.9801 87.9294 38.7001 88.7094 39.2401C89.4894 39.7601 90.4794 40.0201 91.6794 40.0201C92.9394 40.0201 93.9594 39.7401 94.7394 39.1801C95.5394 38.6201 96.0194 37.9701 96.1794 37.2301H98.8794C98.6594 38.3301 98.2194 39.2801 97.5594 40.0801C96.8994 40.8801 96.0694 41.4901 95.0694 41.9101C94.0694 42.3301 92.9394 42.5401 91.6794 42.5401ZM111.699 42.5401C110.379 42.5401 109.199 42.2501 108.159 41.6701C107.139 41.0901 106.329 40.2501 105.729 39.1501C105.129 38.0301 104.799 36.6901 104.739 35.1301H105.519V42.0001H103.239V20.1001H106.119V30.7501L105.099 32.9401C105.179 31.2001 105.529 29.7801 106.149 28.6801C106.769 27.5801 107.579 26.7701 108.579 26.2501C109.599 25.7101 110.719 25.4401 111.939 25.4401C113.079 25.4401 114.119 25.6601 115.059 26.1001C115.999 26.5201 116.809 27.1101 117.489 27.8701C118.169 28.6101 118.689 29.4801 119.049 30.4801C119.409 31.4601 119.589 32.5201 119.589 33.6601V34.2001C119.589 35.3401 119.399 36.4101 119.019 37.4101C118.659 38.4101 118.129 39.3001 117.429 40.0801C116.729 40.8401 115.889 41.4401 114.909 41.8801C113.949 42.3201 112.879 42.5401 111.699 42.5401ZM111.369 40.0201C112.449 40.0201 113.389 39.7601 114.189 39.2401C114.989 38.7201 115.609 38.0101 116.049 37.1101C116.489 36.1901 116.709 35.1301 116.709 33.9301C116.709 32.7301 116.479 31.6801 116.019 30.7801C115.579 29.8801 114.959 29.1901 114.159 28.7101C113.359 28.2101 112.429 27.9601 111.369 27.9601C110.409 27.9601 109.519 28.1801 108.699 28.6201C107.879 29.0401 107.219 29.6601 106.719 30.4801C106.239 31.2801 105.999 32.2501 105.999 33.3901V34.7701C105.999 35.8701 106.249 36.8101 106.749 37.5901C107.249 38.3701 107.909 38.9701 108.729 39.3901C109.549 39.8101 110.429 40.0201 111.369 40.0201ZM131.302 42.5401C129.902 42.5401 128.672 42.3001 127.612 41.8201C126.552 41.3401 125.652 40.7101 124.912 39.9301C124.192 39.1301 123.642 38.2401 123.262 37.2601C122.902 36.2801 122.722 35.2801 122.722 34.2601V33.7201C122.722 32.7001 122.912 31.7001 123.292 30.7201C123.672 29.7201 124.232 28.8301 124.972 28.0501C125.712 27.2501 126.612 26.6201 127.672 26.1601C128.732 25.6801 129.942 25.4401 131.302 25.4401C132.662 25.4401 133.872 25.6801 134.932 26.1601C135.992 26.6201 136.892 27.2501 137.632 28.0501C138.372 28.8301 138.932 29.7201 139.312 30.7201C139.692 31.7001 139.882 32.7001 139.882 33.7201V34.2601C139.882 35.2801 139.692 36.2801 139.312 37.2601C138.952 38.2401 138.402 39.1301 137.662 39.9301C136.942 40.7101 136.052 41.3401 134.992 41.8201C133.932 42.3001 132.702 42.5401 131.302 42.5401ZM131.302 39.9601C132.502 39.9601 133.522 39.7001 134.362 39.1801C135.222 38.6401 135.872 37.9201 136.312 37.0201C136.772 36.1201 137.002 35.1101 137.002 33.9901C137.002 32.8501 136.772 31.8301 136.312 30.9301C135.852 30.0301 135.192 29.3201 134.332 28.8001C133.492 28.2801 132.482 28.0201 131.302 28.0201C130.142 28.0201 129.132 28.2801 128.272 28.8001C127.412 29.3201 126.752 30.0301 126.292 30.9301C125.832 31.8301 125.602 32.8501 125.602 33.9901C125.602 35.1101 125.822 36.1201 126.262 37.0201C126.722 37.9201 127.372 38.6401 128.212 39.1801C129.072 39.7001 130.102 39.9601 131.302 39.9601ZM150.436 42.1801C149.236 42.1801 148.196 42.0101 147.316 41.6701C146.456 41.3301 145.786 40.7501 145.306 39.9301C144.846 39.0901 144.616 37.9601 144.616 36.5401V21.1201H147.376V36.9001C147.376 37.7601 147.606 38.4301 148.066 38.9101C148.546 39.3701 149.216 39.6001 150.076 39.6001H152.896V42.1801H150.436ZM141.856 28.1401V25.9801H152.896V28.1401H141.856ZM162.102 42.4801C160.002 42.4801 158.372 42.0301 157.212 41.1301C156.072 40.2301 155.482 39.0001 155.442 37.4401H158.142C158.182 38.0601 158.492 38.6501 159.072 39.2101C159.672 39.7501 160.682 40.0201 162.102 40.0201C163.382 40.0201 164.362 39.7701 165.042 39.2701C165.722 38.7501 166.062 38.1201 166.062 37.3801C166.062 36.7201 165.812 36.2101 165.312 35.8501C164.812 35.4701 164.002 35.2201 162.882 35.1001L161.142 34.9201C159.622 34.7601 158.382 34.3101 157.422 33.5701C156.462 32.8101 155.982 31.7501 155.982 30.3901C155.982 29.3701 156.242 28.5001 156.762 27.7801C157.282 27.0401 158.002 26.4801 158.922 26.1001C159.842 25.7001 160.902 25.5001 162.102 25.5001C163.902 25.5001 165.362 25.9001 166.482 26.7001C167.602 27.5001 168.182 28.6901 168.222 30.2701H165.522C165.502 29.6301 165.202 29.0901 164.622 28.6501C164.062 28.1901 163.222 27.9601 162.102 27.9601C160.982 27.9601 160.132 28.1901 159.552 28.6501C158.972 29.1101 158.682 29.6901 158.682 30.3901C158.682 30.9901 158.882 31.4701 159.282 31.8301C159.702 32.1901 160.382 32.4201 161.322 32.5201L163.062 32.7001C164.782 32.8801 166.162 33.3601 167.202 34.1401C168.242 34.9001 168.762 35.9801 168.762 37.3801C168.762 38.3801 168.472 39.2701 167.892 40.0501C167.332 40.8101 166.552 41.4101 165.552 41.8501C164.552 42.2701 163.402 42.4801 162.102 42.4801ZM179.176 42.1801C177.976 42.1801 176.936 42.0101 176.056 41.6701C175.196 41.3301 174.526 40.7501 174.046 39.9301C173.586 39.0901 173.356 37.9601 173.356 36.5401V21.1201H176.116V36.9001C176.116 37.7601 176.346 38.4301 176.806 38.9101C177.286 39.3701 177.956 39.6001 178.816 39.6001H181.636V42.1801H179.176ZM170.596 28.1401V25.9801H181.636V28.1401H170.596ZM184.629 48.2401V45.6601H186.939C187.619 45.6601 188.189 45.5701 188.649 45.3901C189.129 45.2301 189.519 44.9501 189.819 44.5501C190.139 44.1501 190.399 43.6201 190.599 42.9601L195.639 25.9801H198.459L193.119 43.7101C192.799 44.7701 192.349 45.6301 191.769 46.2901C191.189 46.9701 190.479 47.4601 189.639 47.7601C188.819 48.0801 187.859 48.2401 186.759 48.2401H184.629ZM189.519 41.6401V39.2401H192.999V41.6401H189.519ZM189.219 41.6401L183.489 25.9801H186.429L191.919 41.6401H189.219ZM202.115 48.0001V25.9801H204.395V32.9101L203.855 32.8501C203.955 31.1301 204.315 29.7301 204.935 28.6501C205.575 27.5501 206.405 26.7401 207.425 26.2201C208.445 25.7001 209.555 25.4401 210.755 25.4401C211.915 25.4401 212.965 25.6601 213.905 26.1001C214.865 26.5401 215.685 27.1401 216.365 27.9001C217.045 28.6601 217.565 29.5401 217.925 30.5401C218.285 31.5401 218.465 32.6001 218.465 33.7201V34.2601C218.465 35.3801 218.275 36.4401 217.895 37.4401C217.515 38.4401 216.975 39.3201 216.275 40.0801C215.595 40.8401 214.775 41.4401 213.815 41.8801C212.875 42.3201 211.835 42.5401 210.695 42.5401C209.555 42.5401 208.465 42.2901 207.425 41.7901C206.385 41.2901 205.525 40.4801 204.845 39.3601C204.165 38.2401 203.775 36.7701 203.675 34.9501L204.995 37.3501V48.0001H202.115ZM210.245 40.0201C211.325 40.0201 212.265 39.7701 213.065 39.2701C213.865 38.7501 214.485 38.0401 214.925 37.1401C215.365 36.2201 215.585 35.1701 215.585 33.9901C215.585 32.7901 215.365 31.7401 214.925 30.8401C214.485 29.9401 213.865 29.2401 213.065 28.7401C212.265 28.2201 211.325 27.9601 210.245 27.9601C209.285 27.9601 208.395 28.1801 207.575 28.6201C206.755 29.0401 206.095 29.6601 205.595 30.4801C205.115 31.2801 204.875 32.2501 204.875 33.3901V34.7701C204.875 35.8701 205.125 36.8101 205.625 37.5901C206.125 38.3701 206.785 38.9701 207.605 39.3901C208.425 39.8101 209.305 40.0201 210.245 40.0201Z" fill="white"/>
<path d="M344 45L324.947 19.5L363.053 19.5L344 45Z" fill="white"/>
<path d="M344 45L324.947 19.5L363.053 19.5L344 45Z" fill="white"/>
</svg>
