<svg width="369" height="64" viewBox="0 0 369 64" fill="none" xmlns="http://www.w3.org/2000/svg">
<rect width="369" height="64" fill="#F5F5F5"/>
<rect width="1440" height="4967" transform="translate(-924 -1506)" fill="white"/>
<rect y="0.00012207" width="374" height="64" fill="#0099A8"/>
<path d="M25.52 42.1201V39.5401H31.64C32.82 39.5401 33.73 39.2101 34.37 38.5501C35.03 37.8701 35.36 36.9701 35.36 35.8501C35.36 34.7101 35.04 33.8201 34.4 33.1801C33.76 32.5201 32.84 32.1901 31.64 32.1901H25.52V30.2701H31.22C32.62 30.2701 33.85 30.4401 34.91 30.7801C35.99 31.1201 36.83 31.6901 37.43 32.4901C38.05 33.2701 38.36 34.3401 38.36 35.7001V36.1201C38.36 37.4001 38.1 38.4901 37.58 39.3901C37.06 40.2701 36.27 40.9501 35.21 41.4301C34.15 41.8901 32.82 42.1201 31.22 42.1201H25.52ZM23.18 42.1201V19.9801H26.12V42.1201H23.18ZM25.52 31.6501V29.7301H30.83C32.07 29.7301 32.98 29.4001 33.56 28.7401C34.16 28.0601 34.46 27.2001 34.46 26.1601C34.46 25.1001 34.16 24.2401 33.56 23.5801C32.98 22.9001 32.07 22.5601 30.83 22.5601H25.52V19.9801H30.32C32.72 19.9801 34.51 20.4901 35.69 21.5101C36.87 22.5101 37.46 23.9601 37.46 25.8601V26.2801C37.46 27.6201 37.16 28.6901 36.56 29.4901C35.96 30.2701 35.12 30.8301 34.04 31.1701C32.98 31.4901 31.74 31.6501 30.32 31.6501H25.52ZM52.8406 42.0001V37.2001H52.3606V31.6501C52.3606 30.5501 52.0706 29.7201 51.4906 29.1601C50.9306 28.6001 50.1006 28.3201 49.0006 28.3201C48.3806 28.3201 47.7406 28.3301 47.0806 28.3501C46.4206 28.3701 45.7906 28.3901 45.1906 28.4101C44.5906 28.4301 44.0706 28.4601 43.6306 28.5001V25.9801C44.0706 25.9401 44.5306 25.9101 45.0106 25.8901C45.5106 25.8501 46.0206 25.8301 46.5406 25.8301C47.0606 25.8101 47.5606 25.8001 48.0406 25.8001C49.6806 25.8001 51.0206 26.0001 52.0606 26.4001C53.1006 26.7801 53.8706 27.4101 54.3706 28.2901C54.8706 29.1701 55.1206 30.3601 55.1206 31.8601V42.0001H52.8406ZM47.5906 42.4201C46.3906 42.4201 45.3506 42.2201 44.4706 41.8201C43.6106 41.4001 42.9406 40.8001 42.4606 40.0201C42.0006 39.2401 41.7706 38.3001 41.7706 37.2001C41.7706 36.0601 42.0206 35.1101 42.5206 34.3501C43.0406 33.5901 43.7906 33.0201 44.7706 32.6401C45.7506 32.2401 46.9306 32.0401 48.3106 32.0401H52.6606V34.2001H48.1906C47.0306 34.2001 46.1406 34.4801 45.5206 35.0401C44.9006 35.6001 44.5906 36.3201 44.5906 37.2001C44.5906 38.0801 44.9006 38.7901 45.5206 39.3301C46.1406 39.8701 47.0306 40.1401 48.1906 40.1401C48.8706 40.1401 49.5206 40.0201 50.1406 39.7801C50.7606 39.5201 51.2706 39.1001 51.6706 38.5201C52.0906 37.9201 52.3206 37.1001 52.3606 36.0601L53.1406 37.2001C53.0406 38.3401 52.7606 39.3001 52.3006 40.0801C51.8606 40.8401 51.2406 41.4201 50.4406 41.8201C49.6606 42.2201 48.7106 42.4201 47.5906 42.4201ZM60.4065 42.0001V25.9801H62.6865V32.5801H62.5665C62.5665 30.2401 63.0765 28.5301 64.0965 27.4501C65.1365 26.3501 66.6865 25.8001 68.7465 25.8001H69.2865V28.3801H68.2665C66.6665 28.3801 65.4365 28.8101 64.5765 29.6701C63.7165 30.5101 63.2865 31.7301 63.2865 33.3301V42.0001H60.4065ZM72.7112 42.0001V25.9801H74.9912V32.5801H74.8712C74.8712 30.2401 75.3812 28.5301 76.4012 27.4501C77.4412 26.3501 78.9912 25.8001 81.0512 25.8001H81.5912V28.3801H80.5712C78.9712 28.3801 77.7412 28.8101 76.8812 29.6701C76.0212 30.5101 75.5912 31.7301 75.5912 33.3301V42.0001H72.7112ZM85.7959 42.0001V25.9801H88.6759V42.0001H85.7959ZM83.3359 28.2601V25.9801H88.6759V28.2601H83.3359ZM86.6059 23.4001C85.9659 23.4001 85.4859 23.2301 85.1659 22.8901C84.8659 22.5501 84.7159 22.1201 84.7159 21.6001C84.7159 21.0801 84.8659 20.6501 85.1659 20.3101C85.4859 19.9701 85.9659 19.8001 86.6059 19.8001C87.2459 19.8001 87.7159 19.9701 88.0159 20.3101C88.3359 20.6501 88.4959 21.0801 88.4959 21.6001C88.4959 22.1201 88.3359 22.5501 88.0159 22.8901C87.7159 23.2301 87.2459 23.4001 86.6059 23.4001ZM101.054 42.5401C99.6544 42.5401 98.4444 42.3001 97.4244 41.8201C96.4044 41.3401 95.5744 40.7101 94.9344 39.9301C94.2944 39.1301 93.8144 38.2401 93.4944 37.2601C93.1944 36.2801 93.0444 35.2801 93.0444 34.2601V33.7201C93.0444 32.6801 93.1944 31.6701 93.4944 30.6901C93.8144 29.7101 94.2944 28.8301 94.9344 28.0501C95.5744 27.2501 96.3844 26.6201 97.3644 26.1601C98.3644 25.6801 99.5344 25.4401 100.874 25.4401C102.614 25.4401 104.044 25.8201 105.164 26.5801C106.304 27.3201 107.144 28.2801 107.684 29.4601C108.244 30.6401 108.524 31.9001 108.524 33.2401V34.5301H94.3044V32.3701H106.424L105.764 33.5401C105.764 32.4001 105.584 31.4201 105.224 30.6001C104.864 29.7601 104.324 29.1101 103.604 28.6501C102.884 28.1901 101.974 27.9601 100.874 27.9601C99.7344 27.9601 98.7844 28.2201 98.0244 28.7401C97.2844 29.2601 96.7244 29.9701 96.3444 30.8701C95.9844 31.7701 95.8044 32.8101 95.8044 33.9901C95.8044 35.1301 95.9844 36.1601 96.3444 37.0801C96.7244 37.9801 97.3044 38.7001 98.0844 39.2401C98.8644 39.7601 99.8544 40.0201 101.054 40.0201C102.314 40.0201 103.334 39.7401 104.114 39.1801C104.914 38.6201 105.394 37.9701 105.554 37.2301H108.254C108.034 38.3301 107.594 39.2801 106.934 40.0801C106.274 40.8801 105.444 41.4901 104.444 41.9101C103.444 42.3301 102.314 42.5401 101.054 42.5401ZM112.614 42.0001V25.9801H114.894V32.5801H114.774C114.774 30.2401 115.284 28.5301 116.304 27.4501C117.344 26.3501 118.894 25.8001 120.954 25.8001H121.494V28.3801H120.474C118.874 28.3801 117.644 28.8101 116.784 29.6701C115.924 30.5101 115.494 31.7301 115.494 33.3301V42.0001H112.614ZM131.552 42.5401C130.152 42.5401 128.942 42.3001 127.922 41.8201C126.902 41.3401 126.072 40.7101 125.432 39.9301C124.792 39.1301 124.312 38.2401 123.992 37.2601C123.692 36.2801 123.542 35.2801 123.542 34.2601V33.7201C123.542 32.6801 123.692 31.6701 123.992 30.6901C124.312 29.7101 124.792 28.8301 125.432 28.0501C126.072 27.2501 126.882 26.6201 127.862 26.1601C128.862 25.6801 130.032 25.4401 131.372 25.4401C133.112 25.4401 134.542 25.8201 135.662 26.5801C136.802 27.3201 137.642 28.2801 138.182 29.4601C138.742 30.6401 139.022 31.9001 139.022 33.2401V34.5301H124.802V32.3701H136.922L136.262 33.5401C136.262 32.4001 136.082 31.4201 135.722 30.6001C135.362 29.7601 134.822 29.1101 134.102 28.6501C133.382 28.1901 132.472 27.9601 131.372 27.9601C130.232 27.9601 129.282 28.2201 128.522 28.7401C127.782 29.2601 127.222 29.9701 126.842 30.8701C126.482 31.7701 126.302 32.8101 126.302 33.9901C126.302 35.1301 126.482 36.1601 126.842 37.0801C127.222 37.9801 127.802 38.7001 128.582 39.2401C129.362 39.7601 130.352 40.0201 131.552 40.0201C132.812 40.0201 133.832 39.7401 134.612 39.1801C135.412 38.6201 135.892 37.9701 136.052 37.2301H138.752C138.532 38.3301 138.092 39.2801 137.432 40.0801C136.772 40.8801 135.942 41.4901 134.942 41.9101C133.942 42.3301 132.812 42.5401 131.552 42.5401ZM143.532 42.0001V25.1701C143.532 23.3901 144.002 22.0801 144.942 21.2401C145.882 20.4001 147.262 19.9801 149.082 19.9801H151.062V22.3801H148.602C147.862 22.3801 147.292 22.5901 146.892 23.0101C146.492 23.4101 146.292 23.9701 146.292 24.6901V42.0001H143.532ZM141.312 28.3201V26.1601H151.362V28.3201H141.312ZM154.42 42.0001V25.9801H156.7V32.5801H156.58C156.58 30.2401 157.09 28.5301 158.11 27.4501C159.15 26.3501 160.7 25.8001 162.76 25.8001H163.3V28.3801H162.28C160.68 28.3801 159.45 28.8101 158.59 29.6701C157.73 30.5101 157.3 31.7301 157.3 33.3301V42.0001H154.42ZM173.359 42.5401C171.959 42.5401 170.749 42.3001 169.729 41.8201C168.709 41.3401 167.879 40.7101 167.239 39.9301C166.599 39.1301 166.119 38.2401 165.799 37.2601C165.499 36.2801 165.349 35.2801 165.349 34.2601V33.7201C165.349 32.6801 165.499 31.6701 165.799 30.6901C166.119 29.7101 166.599 28.8301 167.239 28.0501C167.879 27.2501 168.689 26.6201 169.669 26.1601C170.669 25.6801 171.839 25.4401 173.179 25.4401C174.919 25.4401 176.349 25.8201 177.469 26.5801C178.609 27.3201 179.449 28.2801 179.989 29.4601C180.549 30.6401 180.829 31.9001 180.829 33.2401V34.5301H166.609V32.3701H178.729L178.069 33.5401C178.069 32.4001 177.889 31.4201 177.529 30.6001C177.169 29.7601 176.629 29.1101 175.909 28.6501C175.189 28.1901 174.279 27.9601 173.179 27.9601C172.039 27.9601 171.089 28.2201 170.329 28.7401C169.589 29.2601 169.029 29.9701 168.649 30.8701C168.289 31.7701 168.109 32.8101 168.109 33.9901C168.109 35.1301 168.289 36.1601 168.649 37.0801C169.029 37.9801 169.609 38.7001 170.389 39.2401C171.169 39.7601 172.159 40.0201 173.359 40.0201C174.619 40.0201 175.639 39.7401 176.419 39.1801C177.219 38.6201 177.699 37.9701 177.859 37.2301H180.559C180.339 38.3301 179.899 39.2801 179.239 40.0801C178.579 40.8801 177.749 41.4901 176.749 41.9101C175.749 42.3301 174.619 42.5401 173.359 42.5401ZM185.698 42.0001V25.9801H188.578V42.0001H185.698ZM183.238 28.2601V25.9801H188.578V28.2601H183.238ZM186.508 23.4001C185.868 23.4001 185.388 23.2301 185.068 22.8901C184.768 22.5501 184.618 22.1201 184.618 21.6001C184.618 21.0801 184.768 20.6501 185.068 20.3101C185.388 19.9701 185.868 19.8001 186.508 19.8001C187.148 19.8001 187.618 19.9701 187.918 20.3101C188.238 20.6501 188.398 21.0801 188.398 21.6001C188.398 22.1201 188.238 22.5501 187.918 22.8901C187.618 23.2301 187.148 23.4001 186.508 23.4001ZM194.147 42.0001V20.1001H197.027V33.1801H196.307C196.307 31.6001 196.507 30.2401 196.907 29.1001C197.327 27.9401 197.967 27.0501 198.827 26.4301C199.687 25.8101 200.787 25.5001 202.127 25.5001H202.247C204.167 25.5001 205.617 26.1401 206.597 27.4201C207.577 28.6801 208.067 30.4901 208.067 32.8501V42.0001H205.187V32.2501C205.187 30.9501 204.817 29.9401 204.077 29.2201C203.357 28.5001 202.417 28.1401 201.257 28.1401C199.977 28.1401 198.947 28.5701 198.167 29.4301C197.407 30.2701 197.027 31.3801 197.027 32.7601V42.0001H194.147ZM220.146 42.5401C218.746 42.5401 217.536 42.3001 216.516 41.8201C215.496 41.3401 214.666 40.7101 214.026 39.9301C213.386 39.1301 212.906 38.2401 212.586 37.2601C212.286 36.2801 212.136 35.2801 212.136 34.2601V33.7201C212.136 32.6801 212.286 31.6701 212.586 30.6901C212.906 29.7101 213.386 28.8301 214.026 28.0501C214.666 27.2501 215.476 26.6201 216.456 26.1601C217.456 25.6801 218.626 25.4401 219.966 25.4401C221.706 25.4401 223.136 25.8201 224.256 26.5801C225.396 27.3201 226.236 28.2801 226.776 29.4601C227.336 30.6401 227.616 31.9001 227.616 33.2401V34.5301H213.396V32.3701H225.516L224.856 33.5401C224.856 32.4001 224.676 31.4201 224.316 30.6001C223.956 29.7601 223.416 29.1101 222.696 28.6501C221.976 28.1901 221.066 27.9601 219.966 27.9601C218.826 27.9601 217.876 28.2201 217.116 28.7401C216.376 29.2601 215.816 29.9701 215.436 30.8701C215.076 31.7701 214.896 32.8101 214.896 33.9901C214.896 35.1301 215.076 36.1601 215.436 37.0801C215.816 37.9801 216.396 38.7001 217.176 39.2401C217.956 39.7601 218.946 40.0201 220.146 40.0201C221.406 40.0201 222.426 39.7401 223.206 39.1801C224.006 38.6201 224.486 37.9701 224.646 37.2301H227.346C227.126 38.3301 226.686 39.2801 226.026 40.0801C225.366 40.8801 224.536 41.4901 223.536 41.9101C222.536 42.3301 221.406 42.5401 220.146 42.5401ZM232.485 42.0001V25.9801H235.365V42.0001H232.485ZM230.025 28.2601V25.9801H235.365V28.2601H230.025ZM233.295 23.4001C232.655 23.4001 232.175 23.2301 231.855 22.8901C231.555 22.5501 231.405 22.1201 231.405 21.6001C231.405 21.0801 231.555 20.6501 231.855 20.3101C232.175 19.9701 232.655 19.8001 233.295 19.8001C233.935 19.8001 234.405 19.9701 234.705 20.3101C235.025 20.6501 235.185 21.0801 235.185 21.6001C235.185 22.1201 235.025 22.5501 234.705 22.8901C234.405 23.2301 233.935 23.4001 233.295 23.4001ZM247.174 42.1801C245.974 42.1801 244.934 42.0101 244.054 41.6701C243.194 41.3301 242.524 40.7501 242.044 39.9301C241.584 39.0901 241.354 37.9601 241.354 36.5401V21.1201H244.114V36.9001C244.114 37.7601 244.344 38.4301 244.804 38.9101C245.284 39.3701 245.954 39.6001 246.814 39.6001H249.634V42.1801H247.174ZM238.594 28.1401V25.9801H249.634V28.1401H238.594Z" fill="white"/>
<path d="M347 45L327.947 19.5L366.053 19.5L347 45Z" fill="white"/>
<path d="M347 45L327.947 19.5L366.053 19.5L347 45Z" fill="white"/>
</svg>
