<svg width="50" height="54" viewBox="0 0 50 54" fill="none" xmlns="http://www.w3.org/2000/svg">
<path fill-rule="evenodd" clip-rule="evenodd" d="M25.0286 0.422119C20.1462 0.422119 15.3735 1.98025 11.314 4.89947C7.25443 7.8187 4.0904 11.9679 2.22199 16.8224C0.353591 21.6769 -0.135268 27.0186 0.817236 32.1721C1.76974 37.3256 4.12083 42.0594 7.57319 45.7749C11.0255 49.4904 15.4241 52.0206 20.2127 53.0457C25.0012 54.0708 29.9647 53.5447 34.4754 51.5339C38.9862 49.5231 42.8415 46.118 45.554 41.749C48.2665 37.3801 49.7143 32.2436 49.7143 26.9892C49.7143 19.9431 47.1135 13.1857 42.4841 8.20343C37.8546 3.22114 31.5757 0.422119 25.0286 0.422119V0.422119ZM27.6001 28.1559V42.6095H22.0458V28.157H19.2686V23.1757H22.0458V20.1869C22.0458 16.1221 23.6123 13.7056 28.066 13.7056H31.7689V18.687H29.4515C27.7173 18.687 27.6001 19.3832 27.6001 20.6795V23.1757H31.7987L31.307 28.157L27.6001 28.1559Z" fill="white"/>
</svg>
