<svg width="369" height="64" viewBox="0 0 369 64" fill="none" xmlns="http://www.w3.org/2000/svg">
<rect width="369" height="64" fill="#F5F5F5"/>
<rect width="1440" height="4967" transform="translate(-534 -1428)" fill="white"/>
<rect y="0.00012207" width="374" height="64" fill="#0099A8"/>
<path d="M32.96 42.5401C31.26 42.5401 29.72 42.2601 28.34 41.7001C26.96 41.1401 25.77 40.3501 24.77 39.3301C23.79 38.3101 23.03 37.1101 22.49 35.7301C21.95 34.3301 21.68 32.8101 21.68 31.1701V30.5101C21.68 29.1101 21.92 27.7601 22.4 26.4601C22.9 25.1401 23.61 23.9601 24.53 22.9201C25.47 21.8601 26.61 21.0301 27.95 20.4301C29.29 19.8101 30.8 19.5001 32.48 19.5001C34.3 19.5001 35.92 19.8501 37.34 20.5501C38.76 21.2301 39.9 22.1901 40.76 23.4301C41.62 24.6501 42.12 26.0701 42.26 27.6901H39.26C39.12 26.4701 38.72 25.4601 38.06 24.6601C37.4 23.8401 36.58 23.2301 35.6 22.8301C34.64 22.4101 33.6 22.2001 32.48 22.2001C31.34 22.2001 30.29 22.4101 29.33 22.8301C28.37 23.2301 27.54 23.8101 26.84 24.5701C26.16 25.3301 25.63 26.2401 25.25 27.3001C24.87 28.3601 24.68 29.5501 24.68 30.8701C24.68 32.3701 24.88 33.6901 25.28 34.8301C25.7 35.9501 26.28 36.8901 27.02 37.6501C27.76 38.3901 28.63 38.9501 29.63 39.3301C30.65 39.7101 31.76 39.9001 32.96 39.9001C34.66 39.9001 36.15 39.5601 37.43 38.8801C38.73 38.1801 39.71 37.2801 40.37 36.1801L39.29 39.7501V33.2401H42.05V38.4601C41.07 39.7401 39.81 40.7401 38.27 41.4601C36.73 42.1801 34.96 42.5401 32.96 42.5401ZM32.18 33.8401V31.3801H43.91V33.8401H32.18ZM47.6916 42.0001V25.9801H49.9716V32.5801H49.8516C49.8516 30.2401 50.3616 28.5301 51.3816 27.4501C52.4216 26.3501 53.9716 25.8001 56.0316 25.8001H56.5716V28.3801H55.5516C53.9516 28.3801 52.7216 28.8101 51.8616 29.6701C51.0016 30.5101 50.5716 31.7301 50.5716 33.3301V42.0001H47.6916ZM65.5463 42.4801C63.6463 42.4801 62.1863 41.8601 61.1663 40.6201C60.1463 39.3801 59.6363 37.5901 59.6363 35.2501V25.9501H62.5163V35.8201C62.5163 37.0801 62.8563 38.0701 63.5363 38.7901C64.2163 39.4901 65.1363 39.8401 66.2963 39.8401C67.4963 39.8401 68.4763 39.4601 69.2363 38.7001C69.9963 37.9201 70.3763 36.8601 70.3763 35.5201V25.9501H73.2563V42.0001H70.9763V35.1301H71.3363C71.3363 36.7101 71.1263 38.0501 70.7063 39.1501C70.2863 40.2301 69.6563 41.0601 68.8163 41.6401C67.9963 42.2001 66.9463 42.4801 65.6663 42.4801H65.5463ZM78.8342 48.0001V25.9801H81.1142V32.9101L80.5742 32.8501C80.6742 31.1301 81.0342 29.7301 81.6542 28.6501C82.2942 27.5501 83.1242 26.7401 84.1442 26.2201C85.1642 25.7001 86.2742 25.4401 87.4742 25.4401C88.6342 25.4401 89.6842 25.6601 90.6242 26.1001C91.5842 26.5401 92.4042 27.1401 93.0842 27.9001C93.7642 28.6601 94.2842 29.5401 94.6442 30.5401C95.0042 31.5401 95.1842 32.6001 95.1842 33.7201V34.2601C95.1842 35.3801 94.9942 36.4401 94.6142 37.4401C94.2342 38.4401 93.6942 39.3201 92.9942 40.0801C92.3142 40.8401 91.4942 41.4401 90.5342 41.8801C89.5942 42.3201 88.5542 42.5401 87.4142 42.5401C86.2742 42.5401 85.1842 42.2901 84.1442 41.7901C83.1042 41.2901 82.2442 40.4801 81.5642 39.3601C80.8842 38.2401 80.4942 36.7701 80.3942 34.9501L81.7142 37.3501V48.0001H78.8342ZM86.9642 40.0201C88.0442 40.0201 88.9842 39.7701 89.7842 39.2701C90.5842 38.7501 91.2042 38.0401 91.6442 37.1401C92.0842 36.2201 92.3042 35.1701 92.3042 33.9901C92.3042 32.7901 92.0842 31.7401 91.6442 30.8401C91.2042 29.9401 90.5842 29.2401 89.7842 28.7401C88.9842 28.2201 88.0442 27.9601 86.9642 27.9601C86.0042 27.9601 85.1142 28.1801 84.2942 28.6201C83.4742 29.0401 82.8142 29.6601 82.3142 30.4801C81.8342 31.2801 81.5942 32.2501 81.5942 33.3901V34.7701C81.5942 35.8701 81.8442 36.8101 82.3442 37.5901C82.8442 38.3701 83.5042 38.9701 84.3242 39.3901C85.1442 39.8101 86.0242 40.0201 86.9642 40.0201ZM99.5178 48.0001V25.9801H101.798V32.9101L101.258 32.8501C101.358 31.1301 101.718 29.7301 102.338 28.6501C102.978 27.5501 103.808 26.7401 104.828 26.2201C105.848 25.7001 106.958 25.4401 108.158 25.4401C109.318 25.4401 110.368 25.6601 111.308 26.1001C112.268 26.5401 113.088 27.1401 113.768 27.9001C114.448 28.6601 114.968 29.5401 115.328 30.5401C115.688 31.5401 115.868 32.6001 115.868 33.7201V34.2601C115.868 35.3801 115.678 36.4401 115.298 37.4401C114.918 38.4401 114.378 39.3201 113.678 40.0801C112.998 40.8401 112.178 41.4401 111.218 41.8801C110.278 42.3201 109.238 42.5401 108.098 42.5401C106.958 42.5401 105.868 42.2901 104.828 41.7901C103.788 41.2901 102.928 40.4801 102.248 39.3601C101.568 38.2401 101.178 36.7701 101.078 34.9501L102.398 37.3501V48.0001H99.5178ZM107.648 40.0201C108.728 40.0201 109.668 39.7701 110.468 39.2701C111.268 38.7501 111.888 38.0401 112.328 37.1401C112.768 36.2201 112.988 35.1701 112.988 33.9901C112.988 32.7901 112.768 31.7401 112.328 30.8401C111.888 29.9401 111.268 29.2401 110.468 28.7401C109.668 28.2201 108.728 27.9601 107.648 27.9601C106.688 27.9601 105.798 28.1801 104.978 28.6201C104.158 29.0401 103.498 29.6601 102.998 30.4801C102.518 31.2801 102.278 32.2501 102.278 33.3901V34.7701C102.278 35.8701 102.528 36.8101 103.028 37.5901C103.528 38.3701 104.188 38.9701 105.008 39.3901C105.828 39.8101 106.708 40.0201 107.648 40.0201ZM127.011 42.5401C125.611 42.5401 124.401 42.3001 123.381 41.8201C122.361 41.3401 121.531 40.7101 120.891 39.9301C120.251 39.1301 119.771 38.2401 119.451 37.2601C119.151 36.2801 119.001 35.2801 119.001 34.2601V33.7201C119.001 32.6801 119.151 31.6701 119.451 30.6901C119.771 29.7101 120.251 28.8301 120.891 28.0501C121.531 27.2501 122.341 26.6201 123.321 26.1601C124.321 25.6801 125.491 25.4401 126.831 25.4401C128.571 25.4401 130.001 25.8201 131.121 26.5801C132.261 27.3201 133.101 28.2801 133.641 29.4601C134.201 30.6401 134.481 31.9001 134.481 33.2401V34.5301H120.261V32.3701H132.381L131.721 33.5401C131.721 32.4001 131.541 31.4201 131.181 30.6001C130.821 29.7601 130.281 29.1101 129.561 28.6501C128.841 28.1901 127.931 27.9601 126.831 27.9601C125.691 27.9601 124.741 28.2201 123.981 28.7401C123.241 29.2601 122.681 29.9701 122.301 30.8701C121.941 31.7701 121.761 32.8101 121.761 33.9901C121.761 35.1301 121.941 36.1601 122.301 37.0801C122.681 37.9801 123.261 38.7001 124.041 39.2401C124.821 39.7601 125.811 40.0201 127.011 40.0201C128.271 40.0201 129.291 39.7401 130.071 39.1801C130.871 38.6201 131.351 37.9701 131.511 37.2301H134.211C133.991 38.3301 133.551 39.2801 132.891 40.0801C132.231 40.8801 131.401 41.4901 130.401 41.9101C129.401 42.3301 128.271 42.5401 127.011 42.5401ZM138.571 42.0001V25.9801H140.851V32.8501H140.491C140.491 31.2701 140.701 29.9401 141.121 28.8601C141.561 27.7601 142.221 26.9301 143.101 26.3701C143.981 25.7901 145.091 25.5001 146.431 25.5001H146.551C148.571 25.5001 150.061 26.1301 151.021 27.3901C152.001 28.6501 152.491 30.4701 152.491 32.8501V42.0001H149.611V32.2501C149.611 31.0101 149.261 30.0201 148.561 29.2801C147.861 28.5201 146.901 28.1401 145.681 28.1401C144.421 28.1401 143.401 28.5301 142.621 29.3101C141.841 30.0901 141.451 31.1301 141.451 32.4301V42.0001H138.571Z" fill="white"/>
<path d="M345.5 45L326.014 19.5L364.986 19.5L345.5 45Z" fill="white"/>
<path d="M345.5 45L326.014 19.5L364.986 19.5L345.5 45Z" fill="white"/>
</svg>
