<svg width="50" height="54" viewBox="0 0 50 54" fill="none" xmlns="http://www.w3.org/2000/svg">
<path fill-rule="evenodd" clip-rule="evenodd" d="M25.2 0.422119C20.3176 0.422119 15.5449 1.98025 11.4854 4.89947C7.42581 7.8187 4.26179 11.9679 2.39338 16.8224C0.524978 21.6769 0.0361186 27.0186 0.988622 32.1721C1.94113 37.3256 4.29221 42.0594 7.74457 45.7749C11.1969 49.4904 15.5955 52.0206 20.3841 53.0457C25.1726 54.0708 30.1361 53.5447 34.6468 51.5339C39.1575 49.5231 43.0129 46.118 45.7254 41.749C48.4379 37.3801 49.8857 32.2436 49.8857 26.9892C49.8857 19.9431 47.2849 13.1857 42.6554 8.20343C38.026 3.22114 31.7471 0.422119 25.2 0.422119V0.422119ZM19.7722 12.9053C21.1762 12.8367 21.6237 12.8201 25.201 12.8201C28.7774 12.8201 29.2248 12.8367 30.6288 12.9053C31.7216 12.9292 32.8028 13.1519 33.8266 13.564C34.7012 13.9282 35.4955 14.485 36.1587 15.1987C36.8218 15.9123 37.3391 16.7672 37.6776 17.7084C38.0591 18.8099 38.266 19.9725 38.2896 21.1477C38.3524 22.6587 38.3688 23.1403 38.3688 26.9903C38.3688 30.8403 38.3524 31.3207 38.2896 32.8317C38.2659 34.0069 38.059 35.1695 37.6776 36.271C37.3388 37.212 36.8215 38.0667 36.1586 38.7805C35.4957 39.4943 34.7019 40.0515 33.8277 40.4166C32.8043 40.8288 31.7234 41.0515 30.6309 41.0752C29.2269 41.1439 28.7794 41.1605 25.2031 41.1605C21.6268 41.1605 21.1793 41.1439 19.7753 41.0752C18.6831 41.0516 17.6026 40.8289 16.5796 40.4166C15.7051 40.052 14.911 39.4949 14.2481 38.7811C13.5851 38.0672 13.068 37.2123 12.7296 36.271C12.3467 35.17 12.1397 34.0071 12.1176 32.8317C12.0538 31.3207 12.0384 30.8392 12.0384 26.9903C12.0384 23.1414 12.0549 22.6587 12.1176 21.1477C12.1386 19.9722 12.3456 18.8091 12.7296 17.7084C13.0683 16.7672 13.5858 15.9125 14.2491 15.199C14.9124 14.4855 15.7069 13.929 16.5816 13.5651C17.6029 13.1529 18.6817 12.9298 19.7722 12.9053Z" fill="white"/>
<path fill-rule="evenodd" clip-rule="evenodd" d="M24.0202 15.3738H25.2C28.7157 15.3738 29.1322 15.3871 30.5198 15.4557C31.3547 15.4665 32.1817 15.6317 32.9647 15.9439C33.5323 16.1798 34.0478 16.5409 34.4781 17.0039C34.9084 17.467 35.2439 18.0218 35.4631 18.6327C35.7534 19.4749 35.9068 20.3646 35.9167 21.2628C35.9794 22.7561 35.9938 23.2055 35.9938 26.9869C35.9938 30.7683 35.9805 31.2166 35.9167 32.711C35.9067 33.6092 35.7532 34.4989 35.4631 35.3411C35.2436 35.9517 34.908 36.5062 34.4777 36.9691C34.0475 37.4319 33.5321 37.7929 32.9647 38.0288C32.1819 38.3417 31.3548 38.5068 30.5198 38.517C29.1322 38.5845 28.7146 38.6 25.2 38.6C21.6854 38.6 21.2678 38.5856 19.8802 38.517C19.0453 38.5059 18.2184 38.3408 17.4353 38.0288C16.8675 37.7931 16.3517 37.4321 15.9213 36.969C15.4908 36.506 15.1552 35.9511 14.9359 35.34C14.6456 34.4978 14.4922 33.6081 14.4823 32.7099C14.4196 31.2166 14.4062 30.7672 14.4062 26.9836C14.4062 23.2 14.4185 22.7539 14.4823 21.2595C14.4925 20.3613 14.6459 19.4717 14.9359 18.6294C15.1551 18.0182 15.4907 17.4631 15.9212 16.9998C16.3516 16.5366 16.8674 16.1754 17.4353 15.9395C18.2182 15.6269 19.0453 15.4618 19.8802 15.4513C21.095 15.3926 21.5661 15.3749 24.0192 15.3716L24.0202 15.3738ZM32.2293 17.7261C31.9168 17.7261 31.6113 17.8258 31.3515 18.0126C31.0917 18.1995 30.8892 18.465 30.7696 18.7757C30.6501 19.0864 30.6188 19.4283 30.6797 19.7581C30.7407 20.0879 30.8912 20.3909 31.1121 20.6287C31.3331 20.8665 31.6146 21.0284 31.9211 21.094C32.2275 21.1596 32.5452 21.1259 32.8339 20.9972C33.1226 20.8685 33.3693 20.6506 33.5429 20.371C33.7165 20.0914 33.8092 19.7627 33.8092 19.4264C33.8092 18.9754 33.6427 18.543 33.3464 18.2241C33.0501 17.9052 32.6483 17.7261 32.2293 17.7261ZM18.4402 26.9891C18.44 25.55 18.8364 24.1431 19.5792 22.9464C20.322 21.7496 21.3779 20.8169 22.6133 20.266C23.8487 19.7152 25.2082 19.571 26.5198 19.8517C27.8313 20.1324 29.0361 20.8254 29.9817 21.8431C30.9272 22.8607 31.5712 24.1573 31.832 25.5688C32.0928 26.9803 31.9589 28.4434 31.447 29.773C30.9352 31.1025 30.0685 32.2389 28.9565 33.0383C27.8445 33.8377 26.5373 34.2643 25.2 34.2641C23.4074 34.2635 21.6883 33.4968 20.4207 32.1326C19.1532 30.7685 18.4408 28.9184 18.4402 26.9891Z" fill="white"/>
<path d="M25.2 22.2659C26.0681 22.2654 26.9169 22.5421 27.6389 23.0608C28.3609 23.5796 28.9238 24.3171 29.2563 25.1802C29.5888 26.0432 29.676 26.993 29.5069 27.9094C29.3377 28.8258 28.9199 29.6676 28.3062 30.3284C27.6925 30.9892 26.9104 31.4393 26.059 31.6217C25.2076 31.8042 24.325 31.7108 23.5229 31.3533C22.7208 30.9959 22.0353 30.3905 21.5529 29.6137C21.0706 28.8369 20.8131 27.9236 20.8131 26.9893C20.8131 25.7369 21.2752 24.5358 22.0979 23.6501C22.9205 22.7644 24.0363 22.2665 25.2 22.2659Z" fill="white"/>
</svg>
