<svg width="369" height="64" viewBox="0 0 369 64" fill="none" xmlns="http://www.w3.org/2000/svg">
<rect width="369" height="64" fill="#F5F5F5"/>
<rect width="1440" height="4967" transform="translate(-144 -1506)" fill="white"/>
<rect y="0.00012207" width="374" height="64" fill="#0099A8"/>
<path d="M36.98 42.0001L28.07 31.7701H24.86L35.03 20.1001H38.39L29.15 30.6601L28.88 28.5901L40.64 42.0001H36.98ZM23.18 42.0001V20.1001H26.12V42.0001H23.18ZM50.1205 42.5401C48.7205 42.5401 47.4905 42.3001 46.4305 41.8201C45.3705 41.3401 44.4705 40.7101 43.7305 39.9301C43.0105 39.1301 42.4605 38.2401 42.0805 37.2601C41.7205 36.2801 41.5405 35.2801 41.5405 34.2601V33.7201C41.5405 32.7001 41.7305 31.7001 42.1105 30.7201C42.4905 29.7201 43.0505 28.8301 43.7905 28.0501C44.5305 27.2501 45.4305 26.6201 46.4905 26.1601C47.5505 25.6801 48.7605 25.4401 50.1205 25.4401C51.4805 25.4401 52.6905 25.6801 53.7505 26.1601C54.8105 26.6201 55.7105 27.2501 56.4505 28.0501C57.1905 28.8301 57.7505 29.7201 58.1305 30.7201C58.5105 31.7001 58.7005 32.7001 58.7005 33.7201V34.2601C58.7005 35.2801 58.5105 36.2801 58.1305 37.2601C57.7705 38.2401 57.2205 39.1301 56.4805 39.9301C55.7605 40.7101 54.8705 41.3401 53.8105 41.8201C52.7505 42.3001 51.5205 42.5401 50.1205 42.5401ZM50.1205 39.9601C51.3205 39.9601 52.3405 39.7001 53.1805 39.1801C54.0405 38.6401 54.6905 37.9201 55.1305 37.0201C55.5905 36.1201 55.8205 35.1101 55.8205 33.9901C55.8205 32.8501 55.5905 31.8301 55.1305 30.9301C54.6705 30.0301 54.0105 29.3201 53.1505 28.8001C52.3105 28.2801 51.3005 28.0201 50.1205 28.0201C48.9605 28.0201 47.9505 28.2801 47.0905 28.8001C46.2305 29.3201 45.5705 30.0301 45.1105 30.9301C44.6505 31.8301 44.4205 32.8501 44.4205 33.9901C44.4205 35.1101 44.6405 36.1201 45.0805 37.0201C45.5405 37.9201 46.1905 38.6401 47.0305 39.1801C47.8905 39.7001 48.9205 39.9601 50.1205 39.9601ZM68.2639 42.4801C66.1639 42.4801 64.5339 42.0301 63.3739 41.1301C62.2339 40.2301 61.6439 39.0001 61.6039 37.4401H64.3039C64.3439 38.0601 64.6539 38.6501 65.2339 39.2101C65.8339 39.7501 66.8439 40.0201 68.2639 40.0201C69.5439 40.0201 70.5239 39.7701 71.2039 39.2701C71.8839 38.7501 72.2239 38.1201 72.2239 37.3801C72.2239 36.7201 71.9739 36.2101 71.4739 35.8501C70.9739 35.4701 70.1639 35.2201 69.0439 35.1001L67.3039 34.9201C65.7839 34.7601 64.5439 34.3101 63.5839 33.5701C62.6239 32.8101 62.1439 31.7501 62.1439 30.3901C62.1439 29.3701 62.4039 28.5001 62.9239 27.7801C63.4439 27.0401 64.1639 26.4801 65.0839 26.1001C66.0039 25.7001 67.0639 25.5001 68.2639 25.5001C70.0639 25.5001 71.5239 25.9001 72.6439 26.7001C73.7639 27.5001 74.3439 28.6901 74.3839 30.2701H71.6839C71.6639 29.6301 71.3639 29.0901 70.7839 28.6501C70.2239 28.1901 69.3839 27.9601 68.2639 27.9601C67.1439 27.9601 66.2939 28.1901 65.7139 28.6501C65.1339 29.1101 64.8439 29.6901 64.8439 30.3901C64.8439 30.9901 65.0439 31.4701 65.4439 31.8301C65.8639 32.1901 66.5439 32.4201 67.4839 32.5201L69.2239 32.7001C70.9439 32.8801 72.3239 33.3601 73.3639 34.1401C74.4039 34.9001 74.9239 35.9801 74.9239 37.3801C74.9239 38.3801 74.6339 39.2701 74.0539 40.0501C73.4939 40.8101 72.7139 41.4101 71.7139 41.8501C70.7139 42.2701 69.5639 42.4801 68.2639 42.4801ZM85.3379 42.1801C84.1379 42.1801 83.0979 42.0101 82.2179 41.6701C81.3579 41.3301 80.6879 40.7501 80.2079 39.9301C79.7479 39.0901 79.5179 37.9601 79.5179 36.5401V21.1201H82.2779V36.9001C82.2779 37.7601 82.5079 38.4301 82.9679 38.9101C83.4479 39.3701 84.1179 39.6001 84.9779 39.6001H87.7979V42.1801H85.3379ZM76.7579 28.1401V25.9801H87.7979V28.1401H76.7579ZM98.5641 42.5401C97.1641 42.5401 95.9541 42.3001 94.9341 41.8201C93.9141 41.3401 93.0841 40.7101 92.4441 39.9301C91.8041 39.1301 91.3241 38.2401 91.0041 37.2601C90.7041 36.2801 90.5541 35.2801 90.5541 34.2601V33.7201C90.5541 32.6801 90.7041 31.6701 91.0041 30.6901C91.3241 29.7101 91.8041 28.8301 92.4441 28.0501C93.0841 27.2501 93.8941 26.6201 94.8741 26.1601C95.8741 25.6801 97.0441 25.4401 98.3841 25.4401C100.124 25.4401 101.554 25.8201 102.674 26.5801C103.814 27.3201 104.654 28.2801 105.194 29.4601C105.754 30.6401 106.034 31.9001 106.034 33.2401V34.5301H91.8141V32.3701H103.934L103.274 33.5401C103.274 32.4001 103.094 31.4201 102.734 30.6001C102.374 29.7601 101.834 29.1101 101.114 28.6501C100.394 28.1901 99.4841 27.9601 98.3841 27.9601C97.2441 27.9601 96.2941 28.2201 95.5341 28.7401C94.7941 29.2601 94.2341 29.9701 93.8541 30.8701C93.4941 31.7701 93.3141 32.8101 93.3141 33.9901C93.3141 35.1301 93.4941 36.1601 93.8541 37.0801C94.2341 37.9801 94.8141 38.7001 95.5941 39.2401C96.3741 39.7601 97.3641 40.0201 98.5641 40.0201C99.8241 40.0201 100.844 39.7401 101.624 39.1801C102.424 38.6201 102.904 37.9701 103.064 37.2301H105.764C105.544 38.3301 105.104 39.2801 104.444 40.0801C103.784 40.8801 102.954 41.4901 101.954 41.9101C100.954 42.3301 99.8241 42.5401 98.5641 42.5401ZM110.123 42.0001V25.9801H112.403V32.8501H112.043C112.043 31.2701 112.253 29.9401 112.673 28.8601C113.113 27.7601 113.773 26.9301 114.653 26.3701C115.533 25.7901 116.643 25.5001 117.983 25.5001H118.103C120.123 25.5001 121.613 26.1301 122.573 27.3901C123.553 28.6501 124.043 30.4701 124.043 32.8501V42.0001H121.163V32.2501C121.163 31.0101 120.813 30.0201 120.113 29.2801C119.413 28.5201 118.453 28.1401 117.233 28.1401C115.973 28.1401 114.953 28.5301 114.173 29.3101C113.393 30.0901 113.003 31.1301 113.003 32.4301V42.0001H110.123ZM134.053 47.4601C132.993 46.2401 132.053 44.9101 131.233 43.4701C130.433 42.0501 129.813 40.4801 129.373 38.7601C128.933 37.0201 128.713 35.0901 128.713 32.9701C128.713 30.8501 128.933 28.9301 129.373 27.2101C129.833 25.4901 130.463 23.9301 131.263 22.5301C132.083 21.1301 133.013 19.8601 134.053 18.7201H137.353C136.113 20.0601 135.053 21.4501 134.173 22.8901C133.313 24.3301 132.653 25.8801 132.193 27.5401C131.753 29.1801 131.533 30.9901 131.533 32.9701C131.533 34.9501 131.753 36.7801 132.193 38.4601C132.633 40.1201 133.283 41.6801 134.143 43.1401C135.023 44.6201 136.093 46.0601 137.353 47.4601H134.053ZM139.812 34.8901V32.4301H150.972V34.8901H139.812ZM155.889 42.0001V20.1001H158.769V42.0001H155.889ZM153.669 22.3801V20.1001H158.769V22.3801H153.669ZM171.673 42.5401C170.273 42.5401 169.043 42.3001 167.983 41.8201C166.923 41.3401 166.023 40.7101 165.283 39.9301C164.563 39.1301 164.013 38.2401 163.633 37.2601C163.273 36.2801 163.093 35.2801 163.093 34.2601V33.7201C163.093 32.7001 163.283 31.7001 163.663 30.7201C164.043 29.7201 164.603 28.8301 165.343 28.0501C166.083 27.2501 166.983 26.6201 168.043 26.1601C169.103 25.6801 170.313 25.4401 171.673 25.4401C173.033 25.4401 174.243 25.6801 175.303 26.1601C176.363 26.6201 177.263 27.2501 178.003 28.0501C178.743 28.8301 179.303 29.7201 179.683 30.7201C180.063 31.7001 180.253 32.7001 180.253 33.7201V34.2601C180.253 35.2801 180.063 36.2801 179.683 37.2601C179.323 38.2401 178.773 39.1301 178.033 39.9301C177.313 40.7101 176.423 41.3401 175.363 41.8201C174.303 42.3001 173.073 42.5401 171.673 42.5401ZM171.673 39.9601C172.873 39.9601 173.893 39.7001 174.733 39.1801C175.593 38.6401 176.243 37.9201 176.683 37.0201C177.143 36.1201 177.373 35.1101 177.373 33.9901C177.373 32.8501 177.143 31.8301 176.683 30.9301C176.223 30.0301 175.563 29.3201 174.703 28.8001C173.863 28.2801 172.853 28.0201 171.673 28.0201C170.513 28.0201 169.503 28.2801 168.643 28.8001C167.783 29.3201 167.123 30.0301 166.663 30.9301C166.203 31.8301 165.973 32.8501 165.973 33.9901C165.973 35.1101 166.193 36.1201 166.633 37.0201C167.093 37.9201 167.743 38.6401 168.583 39.1801C169.443 39.7001 170.473 39.9601 171.673 39.9601ZM189.817 42.4801C187.717 42.4801 186.087 42.0301 184.927 41.1301C183.787 40.2301 183.197 39.0001 183.157 37.4401H185.857C185.897 38.0601 186.207 38.6501 186.787 39.2101C187.387 39.7501 188.397 40.0201 189.817 40.0201C191.097 40.0201 192.077 39.7701 192.757 39.2701C193.437 38.7501 193.777 38.1201 193.777 37.3801C193.777 36.7201 193.527 36.2101 193.027 35.8501C192.527 35.4701 191.717 35.2201 190.597 35.1001L188.857 34.9201C187.337 34.7601 186.097 34.3101 185.137 33.5701C184.177 32.8101 183.697 31.7501 183.697 30.3901C183.697 29.3701 183.957 28.5001 184.477 27.7801C184.997 27.0401 185.717 26.4801 186.637 26.1001C187.557 25.7001 188.617 25.5001 189.817 25.5001C191.617 25.5001 193.077 25.9001 194.197 26.7001C195.317 27.5001 195.897 28.6901 195.937 30.2701H193.237C193.217 29.6301 192.917 29.0901 192.337 28.6501C191.777 28.1901 190.937 27.9601 189.817 27.9601C188.697 27.9601 187.847 28.1901 187.267 28.6501C186.687 29.1101 186.397 29.6901 186.397 30.3901C186.397 30.9901 186.597 31.4701 186.997 31.8301C187.417 32.1901 188.097 32.4201 189.037 32.5201L190.777 32.7001C192.497 32.8801 193.877 33.3601 194.917 34.1401C195.957 34.9001 196.477 35.9801 196.477 37.3801C196.477 38.3801 196.187 39.2701 195.607 40.0501C195.047 40.8101 194.267 41.4101 193.267 41.8501C192.267 42.2701 191.117 42.4801 189.817 42.4801ZM201.202 47.4601C202.262 46.2401 203.192 44.9101 203.992 43.4701C204.812 42.0501 205.442 40.4801 205.882 38.7601C206.322 37.0201 206.542 35.0901 206.542 32.9701C206.542 30.8501 206.312 28.9301 205.852 27.2101C205.412 25.4901 204.782 23.9301 203.962 22.5301C203.162 21.1301 202.242 19.8601 201.202 18.7201H197.902C199.142 20.0601 200.192 21.4501 201.052 22.8901C201.932 24.3301 202.592 25.8801 203.032 27.5401C203.492 29.1801 203.722 30.9901 203.722 32.9701C203.722 34.9501 203.502 36.7801 203.062 38.4601C202.622 40.1201 201.962 41.6801 201.082 43.1401C200.222 44.6201 199.162 46.0601 197.902 47.4601H201.202Z" fill="white"/>
<path d="M344 45L324.947 19.5L363.053 19.5L344 45Z" fill="white"/>
<path d="M344 45L324.947 19.5L363.053 19.5L344 45Z" fill="white"/>
</svg>
