<svg width="436" height="210" viewBox="0 0 436 210" fill="none" xmlns="http://www.w3.org/2000/svg">
<path d="M156.083 84.9533L173.783 22.1676L124.537 0.539795L156.083 84.9533Z" fill="white"/>
<path d="M239.194 56.7977L268.801 58.7991L245.422 22.2373L239.194 56.7977Z" fill="white"/>
<path d="M230.575 75.8241L240.776 22.0015L201.838 43.2164L230.575 75.8241Z" fill="white"/>
<path d="M226.569 78.9689L178.489 23.9397L161.13 84.952L226.569 78.9689Z" fill="white"/>
<path d="M227.98 83.9404L161.085 90.3364L169.3 138.181L227.98 83.9404Z" fill="white"/>
<path d="M129.805 195.752L170.457 174.326L156.747 90.4185L129.805 195.752Z" fill="white"/>
<path d="M1.01562 105.591L6.90111 131.279H15.0433L19.7181 106.541H15.2716L11.8465 126.599H10.9815L6.54111 105.591H1.01562Z" fill="white"/>
<path d="M29.4299 131.279L34.6582 105.591H29.4299L25.4072 127.408L26.4862 126.599H23.6422L24.8847 127.409L20.7642 106.541H16.0894L21.1242 131.279H29.4299Z" fill="white"/>
<path d="M63.5529 116.903V116.018C63.5482 114.174 63.2324 112.345 62.621 110.623C61.9945 108.839 61.0583 107.199 59.8623 105.792C58.5886 104.305 57.0391 103.123 55.314 102.321C53.3229 101.415 51.1765 100.971 49.015 101.019C46.8536 100.971 44.7072 101.415 42.7161 102.321C40.9912 103.123 39.4419 104.305 38.1687 105.792C36.973 107.197 36.0424 108.839 35.4286 110.626C34.8286 112.352 34.5193 114.179 34.5153 116.021V116.907C34.5336 118.646 34.8297 120.368 35.3906 121.999C35.9929 123.798 36.8965 125.464 38.0566 126.913C39.3021 128.468 40.8462 129.714 42.5823 130.566C44.6044 131.532 46.8001 132.004 49.0119 131.949C51.2241 132.004 53.4201 131.532 55.4426 130.566C57.1788 129.714 58.7229 128.468 59.9683 126.913C61.1292 125.461 62.0385 123.796 62.6529 121.999C63.2253 120.371 63.5281 118.647 63.5477 116.907M57.365 116.503C57.3738 117.732 57.1848 118.953 56.8065 120.113C56.4463 121.213 55.8818 122.223 55.1474 123.081C54.4049 123.943 53.5017 124.627 52.4967 125.087C51.3939 125.584 50.2074 125.83 49.0119 125.81C47.8223 125.832 46.6417 125.585 45.5457 125.087C44.5506 124.622 43.6566 123.939 42.9207 123.081C42.1863 122.223 41.6218 121.213 41.2617 120.113C40.8839 118.953 40.695 117.732 40.7031 116.503C40.6901 115.228 40.879 113.959 41.2617 112.752C41.6162 111.649 42.1813 110.638 42.9207 109.783C43.6568 108.939 44.5536 108.276 45.5498 107.839C46.652 107.367 47.8301 107.135 49.0161 107.156C50.202 107.135 51.3801 107.367 52.4823 107.839C53.4781 108.276 54.3745 108.939 55.1103 109.783C55.8509 110.64 56.4217 111.65 56.7879 112.752C57.1833 113.956 57.3786 115.226 57.365 116.503Z" fill="white"/>
<path d="M71.0099 104.344H65.4309V131.278H71.0099V104.344Z" fill="white"/>
<path d="M86.9539 131.279L79.3425 119.788H73.2214L80.4986 131.279H86.9539Z" fill="white"/>
<path d="M75.191 122.715C77.0172 122.76 78.8346 122.431 80.5468 121.745C81.9636 121.175 83.1853 120.154 84.0491 118.817C84.9197 117.351 85.3533 115.634 85.2916 113.895V113.309C85.3546 111.554 84.928 109.819 84.0666 108.328C83.2089 106.975 81.9892 105.935 80.5694 105.346C78.8563 104.637 77.0311 104.295 75.1962 104.338H69.5184V109.43H75.6384C76.3774 109.411 77.1088 109.593 77.7645 109.961C78.3527 110.305 78.8348 110.827 79.152 111.462C79.4917 112.155 79.6616 112.93 79.6458 113.713C79.6616 114.496 79.4917 115.271 79.152 115.964C78.8337 116.599 78.3496 117.121 77.7594 117.464C77.1039 117.832 76.3723 118.014 75.6333 117.994H69.5133V122.715H75.191Z" fill="white"/>
<path d="M94.3062 105.591H88.9442V131.279H94.3062V105.591Z" fill="white"/>
<path d="M103.658 126.212H93.6519V131.278H103.658V126.212Z" fill="white"/>
<path d="M115.328 131.419C117.417 131.467 119.493 131.066 121.437 130.241C123.079 129.527 124.569 128.46 125.815 127.106C126.964 125.847 127.859 124.346 128.445 122.697C129.013 121.115 129.306 119.433 129.31 117.737V116.903C129.317 115.144 129.024 113.399 128.445 111.754C127.867 110.118 126.97 108.634 125.815 107.402C124.565 106.084 123.074 105.06 121.437 104.395C119.482 103.621 117.41 103.247 115.327 103.293H110.842V109.107H115.646C116.75 109.092 117.848 109.279 118.894 109.661C119.815 110.001 120.658 110.552 121.363 111.276C122.054 112.001 122.584 112.884 122.915 113.86C123.284 114.969 123.464 116.14 123.445 117.317C123.459 118.476 123.279 119.628 122.915 120.719C122.586 121.707 122.058 122.604 121.367 123.344C120.662 124.081 119.821 124.651 118.898 125.016C117.856 125.423 116.754 125.622 115.646 125.604H110.842V131.419H115.328Z" fill="white"/>
<path d="M111.553 103.297H105.762V131.419H111.553V103.297Z" fill="white"/>
<path d="M21.7733 72.9348L15.824 88.8429H15.1411L9.11877 72.9348H0.971458V101.258H6.37866V79.5301L12.4729 95.5168H18.0961L24.2244 79.3552V101.258H30.0656V72.9348H21.7733Z" fill="white"/>
<path d="M57.3032 86.0966V85.3217C57.2988 83.704 57.0217 82.1007 56.4855 80.5894C55.9364 79.0238 55.1154 77.585 54.0663 76.3498C52.9493 75.0456 51.5904 74.0081 50.0775 73.3045C48.3304 72.5102 46.4473 72.1209 44.551 72.1621C42.6554 72.1209 40.773 72.5101 39.0265 73.3045C37.5134 74.0078 36.1545 75.0453 35.0377 76.3498C33.9891 77.5821 33.173 79.022 32.635 80.5894C32.1058 82.1028 31.832 83.7058 31.8265 85.3228V86.0977C31.8425 87.6237 32.1024 89.1353 32.5949 90.5665C33.1236 92.145 33.9159 93.6062 34.9328 94.8781C36.0271 96.2413 37.3826 97.3334 38.9062 98.0794C40.6795 98.9284 42.6055 99.3442 44.5459 99.2971C46.4865 99.3442 48.4129 98.9283 50.1865 98.0794C51.7101 97.3334 53.0656 96.2413 54.1599 94.8781C55.1795 93.6037 55.9786 92.1431 56.5195 90.5654C57.0215 89.1365 57.2868 87.624 57.3032 86.0966ZM51.8755 85.7446C51.8832 86.8224 51.7172 87.8936 51.3848 88.9105C51.0689 89.8763 50.5737 90.7629 49.9294 91.5162C49.2789 92.2715 48.4879 92.8708 47.6079 93.2752C46.6402 93.7102 45.5996 93.9257 44.551 93.9084C43.5076 93.927 42.4721 93.7113 41.5105 93.2752C40.6367 92.8681 39.8516 92.269 39.2055 91.5162C38.5614 90.7631 38.0662 89.877 37.7501 88.9116C37.4187 87.8945 37.2531 86.8234 37.2605 85.7457C37.2487 84.6271 37.4143 83.5145 37.7501 82.4558C38.0612 81.4879 38.557 80.6006 39.2055 79.8511C39.8509 79.1101 40.6371 78.5275 41.5105 78.1431C42.4773 77.7293 43.5107 77.5258 44.551 77.5442C45.5916 77.526 46.6253 77.7295 47.5925 78.1431C48.4655 78.5279 49.2516 79.11 49.8975 79.85C50.547 80.6019 51.0478 81.4881 51.3694 82.4547C51.7159 83.5109 51.8872 84.6245 51.8755 85.7446Z" fill="white"/>
<path d="M61.867 100.145L68.6906 77.1468L66.8196 77.9305H71.2867L69.4867 77.1468L76.481 100.145H82.3685L73.711 72.9348H64.5341L56.1873 100.145H61.867Z" fill="white"/>
<path d="M75.9286 93.398L74.1615 88.3281H64.2564L62.5253 93.398H75.9286Z" fill="white"/>
<path d="M95.487 103.169C97.3634 103.229 99.2322 102.887 100.985 102.162C102.356 101.583 103.528 100.565 104.345 99.2452C105.134 97.8719 105.532 96.2798 105.49 94.6657V94.0901C105.572 92.4527 105.112 90.837 104.193 89.5295C103.257 88.3588 102.022 87.5093 100.642 87.0864C98.9698 86.5512 97.2315 86.2925 95.487 86.3193H89.2651V90.3929H95.7925C96.2694 90.3533 96.7488 90.4185 97.2016 90.5844C97.6545 90.7503 98.0712 91.0136 98.4266 91.3581C98.7361 91.7349 98.9731 92.174 99.1238 92.6499C99.2746 93.1259 99.3362 93.6293 99.305 94.1311C99.3657 95.1502 99.05 96.154 98.4266 96.9239C98.0741 97.2743 97.6582 97.5426 97.205 97.7121C96.7517 97.8816 96.2709 97.9487 95.7925 97.9091H89.2651V103.169H95.487Z" fill="white"/>
<path d="M90.0283 72.7246H83.9207V103.166H90.0283V72.7246Z" fill="white"/>
<path d="M94.3802 89.3225C96.1024 89.3492 97.8191 89.1072 99.4768 88.6041C100.856 88.2 102.092 87.3634 103.027 86.2009C103.952 84.9269 104.42 83.3369 104.345 81.7221V81.1055C104.405 79.9252 104.203 78.7465 103.754 77.6673C103.306 76.5882 102.625 75.6398 101.767 74.901C100.049 73.4487 97.5866 72.7229 94.3802 72.7236H89.2651V77.9839H94.7629C95.2359 77.9364 95.7128 77.9999 96.1609 78.17C96.6089 78.3401 97.0173 78.6127 97.3579 78.9691C97.9269 79.7357 98.2122 80.7017 98.1592 81.6812C98.2042 82.6341 97.9187 83.5711 97.3579 84.3102C97.0171 84.6664 96.6087 84.939 96.1608 85.1093C95.7128 85.2795 95.2359 85.3434 94.7629 85.2965H89.2651V89.3225H94.3802Z" fill="white"/>
<path d="M113.387 72.9338H108.025V98.622H113.387V72.9338Z" fill="white"/>
<path d="M130.901 78.1575H124.432V103.175H130.901V78.1575Z" fill="white"/>
<path d="M148.575 78.9612L146.318 72.936H116.346V79.0055L148.575 78.9612Z" fill="white"/>
<path d="M145.716 103.165L147.67 95.27H139.698V103.165H145.716Z" fill="white"/>
<path d="M303.176 118.947V117.464H306.673C307.361 117.496 308.045 117.324 308.648 116.966C309.139 116.653 309.533 116.191 309.779 115.638C310.031 115.059 310.158 114.427 310.15 113.789C310.159 113.143 310.033 112.504 309.779 111.918C309.534 111.366 309.14 110.907 308.648 110.601C308.042 110.251 307.36 110.082 306.673 110.114H303.176V108.63H306.406C307.436 108.591 308.461 108.811 309.399 109.273C310.142 109.655 310.76 110.273 311.168 111.044C311.568 111.838 311.77 112.73 311.754 113.634V113.944C311.768 114.844 311.566 115.732 311.168 116.523C310.762 117.298 310.145 117.921 309.399 118.305C308.461 118.767 307.436 118.987 306.406 118.947H303.176ZM302.024 124.859V108.63H303.587V124.859H302.024ZM314.737 124.859V108.697H316.28V124.859H314.737ZM313.153 110.047V108.697H316.28V110.047H313.153ZM326.895 124.859V121.338H326.648V117.176C326.671 116.813 326.626 116.449 326.516 116.105C326.407 115.761 326.235 115.444 326.01 115.173C325.741 114.92 325.428 114.728 325.089 114.608C324.749 114.488 324.391 114.443 324.035 114.475C323.624 114.475 323.209 114.483 322.791 114.497C322.373 114.512 321.975 114.531 321.598 114.553C321.221 114.575 320.888 114.601 320.6 114.63V113.169L321.526 113.08C321.841 113.051 322.167 113.032 322.503 113.025C322.839 113.018 323.165 113.014 323.48 113.014C324.393 112.979 325.303 113.129 326.165 113.457C326.8 113.711 327.329 114.202 327.656 114.841C328.001 115.616 328.164 116.472 328.129 117.331V124.859H326.895ZM323.213 125.168C322.512 125.183 321.816 125.032 321.176 124.726C320.611 124.454 320.135 124.007 319.808 123.442C319.472 122.825 319.304 122.119 319.325 121.405C319.304 120.701 319.48 120.007 319.829 119.412C320.187 118.846 320.696 118.41 321.289 118.161C322.026 117.854 322.813 117.707 323.603 117.73H326.792V118.992H323.501C322.783 118.939 322.074 119.18 321.515 119.667C321.289 119.889 321.109 120.161 320.99 120.465C320.871 120.769 320.815 121.097 320.826 121.427C320.813 121.76 320.872 122.092 320.996 122.397C321.121 122.702 321.309 122.972 321.546 123.187C322.104 123.65 322.797 123.882 323.501 123.84C324.001 123.842 324.496 123.74 324.961 123.541C325.437 123.334 325.845 122.979 326.134 122.523C326.48 121.93 326.659 121.242 326.648 120.541L327.101 121.228C327.074 121.994 326.877 122.742 326.525 123.408C326.208 123.979 325.743 124.437 325.187 124.726C324.569 125.034 323.894 125.185 323.213 125.168ZM335.926 124.991C335.259 125.008 334.596 124.888 333.971 124.637C333.429 124.407 332.978 123.98 332.696 123.431C332.365 122.721 332.209 121.932 332.243 121.139V109.45H333.725V121.383C333.707 121.667 333.743 121.952 333.832 122.22C333.92 122.489 334.059 122.735 334.239 122.943C334.437 123.134 334.668 123.28 334.918 123.373C335.169 123.466 335.435 123.504 335.699 123.486H337.654V124.991H335.926ZM330.289 114.409V113.147H337.654V114.409H330.289ZM344.586 124.991C343.92 125.008 343.257 124.888 342.632 124.637C342.089 124.407 341.638 123.98 341.357 123.431C341.025 122.721 340.869 121.932 340.904 121.139V109.45H342.385V121.383C342.367 121.667 342.404 121.952 342.492 122.22C342.581 122.489 342.719 122.735 342.899 122.943C343.097 123.134 343.328 123.28 343.579 123.373C343.83 123.466 344.095 123.504 344.36 123.486H346.314V124.991H344.586ZM338.95 114.409V113.147H346.314V114.409H338.95ZM349.606 124.859V112.239C349.568 111.744 349.627 111.246 349.779 110.777C349.932 110.307 350.174 109.878 350.49 109.516C351.238 108.868 352.187 108.552 353.144 108.63H354.522V110.047H352.856C352.617 110.029 352.378 110.063 352.152 110.147C351.926 110.231 351.717 110.362 351.539 110.534C351.382 110.719 351.261 110.935 351.183 111.171C351.105 111.407 351.072 111.657 351.087 111.907V124.859H349.606ZM348.022 114.52V113.235H354.749V114.52H348.022ZM361.784 125.235C360.939 125.254 360.101 125.076 359.326 124.715C358.646 124.388 358.036 123.913 357.536 123.32C356.579 122.174 356.048 120.688 356.045 119.147V118.837C356.046 118.075 356.179 117.321 356.435 116.612C356.693 115.887 357.077 115.222 357.567 114.652C358.075 114.066 358.687 113.595 359.367 113.269C360.136 112.925 360.961 112.748 361.794 112.748C362.627 112.748 363.452 112.925 364.222 113.269C364.902 113.595 365.514 114.066 366.022 114.652C366.511 115.22 366.892 115.886 367.143 116.612C367.393 117.323 367.522 118.076 367.523 118.837V119.147C367.523 119.902 367.398 120.652 367.153 121.361C366.906 122.084 366.533 122.749 366.053 123.32C365.55 123.915 364.937 124.39 364.253 124.715C363.474 125.076 362.632 125.253 361.784 125.235ZM361.784 123.752C362.591 123.78 363.389 123.553 364.078 123.098C364.692 122.675 365.187 122.077 365.507 121.372C365.834 120.623 366.003 119.806 366.001 118.979C365.999 118.152 365.827 117.336 365.497 116.59C365.172 115.886 364.669 115.295 364.047 114.885C363.358 114.471 362.583 114.254 361.794 114.254C361.006 114.254 360.23 114.471 359.542 114.885C358.919 115.295 358.417 115.886 358.091 116.59C357.761 117.336 357.589 118.152 357.587 118.979C357.586 119.806 357.754 120.623 358.081 121.372C358.402 122.077 358.896 122.675 359.511 123.098C360.193 123.551 360.983 123.778 361.784 123.752ZM370.671 124.859V113.147H371.905V118.04H371.782C371.678 116.677 372.053 115.323 372.831 114.243C373.268 113.8 373.788 113.462 374.355 113.251C374.922 113.039 375.524 112.958 376.122 113.014H376.472V114.52H375.834C375.347 114.483 374.857 114.551 374.395 114.72C373.932 114.889 373.505 115.156 373.139 115.505C372.812 115.894 372.561 116.351 372.402 116.847C372.243 117.344 372.179 117.87 372.214 118.394V124.859H370.671ZM378.961 124.859V113.125H380.195V118.062H379.949C379.929 117.112 380.072 116.166 380.37 115.272C380.615 114.542 381.055 113.907 381.635 113.446C382.266 112.989 383.015 112.76 383.775 112.793H383.837C384.595 112.76 385.343 112.984 385.976 113.435C386.556 113.888 386.994 114.522 387.231 115.25C387.524 116.153 387.663 117.106 387.642 118.062H387.149C387.129 117.112 387.272 116.166 387.57 115.272C387.81 114.512 388.275 113.858 388.894 113.41C389.513 112.962 390.251 112.745 390.995 112.793H391.057C391.818 112.761 392.57 112.985 393.207 113.435C393.793 113.887 394.238 114.52 394.482 115.25C394.782 116.152 394.925 117.105 394.904 118.062V124.859H393.361V117.685C393.406 116.803 393.158 115.932 392.662 115.228C392.413 114.92 392.102 114.678 391.752 114.521C391.403 114.364 391.024 114.295 390.646 114.32C390.245 114.299 389.846 114.373 389.474 114.535C389.103 114.698 388.769 114.946 388.496 115.261C387.942 115.967 387.659 116.873 387.704 117.796V124.859H386.161V117.685C386.206 116.803 385.958 115.932 385.462 115.228C385.213 114.92 384.902 114.678 384.552 114.521C384.203 114.364 383.824 114.295 383.446 114.32C383.045 114.299 382.646 114.373 382.274 114.535C381.903 114.698 381.569 114.946 381.296 115.261C380.742 115.967 380.459 116.873 380.504 117.796V124.859H378.961ZM408.008 125.235C407.261 125.246 406.521 125.083 405.838 124.759C405.195 124.448 404.62 123.996 404.151 123.431C403.677 122.861 403.307 122.2 403.061 121.482C402.804 120.735 402.675 119.943 402.68 119.147V118.837C402.677 118.055 402.803 117.28 403.05 116.545C403.288 115.831 403.648 115.17 404.11 114.597C404.588 114.004 405.181 113.531 405.847 113.212C406.514 112.892 407.237 112.734 407.967 112.748C408.814 112.729 409.652 112.951 410.394 113.39C411.103 113.829 411.687 114.468 412.081 115.239C412.531 116.149 412.765 117.164 412.76 118.195L412.081 116.822V108.697H413.624V124.859H412.39V119.656H412.883C412.891 120.733 412.647 121.795 412.174 122.744C411.769 123.535 411.162 124.184 410.425 124.615C409.68 125.035 408.849 125.248 408.008 125.235ZM408.214 123.774C408.914 123.785 409.604 123.602 410.219 123.242C410.813 122.891 411.302 122.365 411.629 121.726C411.98 121.03 412.158 120.248 412.143 119.457V118.394C412.158 117.63 411.98 116.877 411.629 116.213C411.293 115.593 410.805 115.084 410.219 114.741C409.597 114.38 408.9 114.197 408.193 114.21C407.448 114.19 406.714 114.41 406.085 114.841C405.486 115.264 405.009 115.858 404.706 116.556C404.376 117.318 404.211 118.151 404.223 118.992C404.208 119.848 404.377 120.697 404.717 121.471C405.023 122.168 405.509 122.755 406.115 123.165C406.747 123.579 407.475 123.79 408.214 123.774ZM422.161 125.235C421.326 125.256 420.497 125.079 419.734 124.715C419.08 124.394 418.503 123.917 418.047 123.32C417.609 122.739 417.278 122.074 417.07 121.361C416.857 120.637 416.75 119.883 416.751 119.124V118.815C416.751 118.063 416.858 117.317 417.07 116.601C417.276 115.89 417.608 115.228 418.047 114.652C418.498 114.066 419.063 113.594 419.703 113.269C420.434 112.907 421.233 112.729 422.038 112.748C423.042 112.709 424.035 112.994 424.887 113.568C425.625 114.085 426.218 114.808 426.605 115.66C426.989 116.511 427.186 117.447 427.181 118.394V119.257H417.45V117.973H426.111L425.72 118.615C425.736 117.828 425.592 117.046 425.298 116.324C425.035 115.689 424.606 115.151 424.064 114.774C423.454 114.378 422.75 114.182 422.038 114.21C421.286 114.179 420.545 114.403 419.919 114.852C419.356 115.28 418.918 115.871 418.654 116.556C418.362 117.322 418.219 118.143 418.232 118.969C418.222 119.8 418.366 120.624 418.654 121.394C418.916 122.099 419.367 122.704 419.95 123.132C420.637 123.561 421.42 123.783 422.215 123.773C423.009 123.764 423.787 123.523 424.465 123.076C425.004 122.689 425.392 122.102 425.555 121.427H426.995C426.875 122.171 426.577 122.869 426.131 123.453C425.682 124.029 425.111 124.481 424.465 124.77C423.735 125.092 422.951 125.25 422.161 125.235ZM430.143 124.859V113.147H431.377V118.04H431.254C431.15 116.677 431.525 115.323 432.303 114.243C432.74 113.8 433.26 113.462 433.827 113.251C434.394 113.039 434.996 112.958 435.594 113.014H435.944V114.52H435.306C434.819 114.483 434.329 114.551 433.867 114.72C433.404 114.889 432.977 115.156 432.611 115.505C432.284 115.894 432.033 116.351 431.874 116.847C431.715 117.344 431.651 117.87 431.686 118.394V124.859H430.143Z" fill="white"/>
<path d="M317.839 158.342V172.57H331.06C331.06 170.701 330.718 168.851 330.053 167.125C329.389 165.399 328.415 163.83 327.188 162.509C325.96 161.188 324.503 160.14 322.899 159.425C321.295 158.71 319.575 158.342 317.839 158.342" fill="white"/>
<path d="M301.314 172.57V186.798C301.314 188.666 301.656 190.516 302.32 192.242C302.985 193.969 303.958 195.537 305.186 196.858C306.414 198.18 307.871 199.228 309.475 199.943C311.079 200.658 312.798 201.025 314.534 201.025V158.342C312.798 158.342 311.079 158.71 309.475 159.425C307.871 160.14 306.414 161.188 305.186 162.509C303.958 163.83 302.985 165.399 302.32 167.125C301.656 168.851 301.314 170.701 301.314 172.57Z" fill="white"/>
<path d="M400.465 158.342V144.115H387.245C387.245 145.983 387.587 147.833 388.251 149.559C388.916 151.286 389.889 152.854 391.117 154.175C392.345 155.497 393.802 156.545 395.406 157.26C397.01 157.974 398.729 158.342 400.465 158.342Z" fill="white"/>
<path d="M387.245 158.342V172.57H400.465C400.466 170.701 400.124 168.851 399.459 167.125C398.795 165.399 397.821 163.83 396.594 162.509C395.366 161.188 393.909 160.14 392.305 159.425C390.701 158.71 388.981 158.342 387.245 158.342" fill="white"/>
<path d="M352.542 158.342V186.798H365.763V172.57C365.763 170.701 365.421 168.851 364.756 167.125C364.092 165.399 363.118 163.83 361.891 162.509C360.663 161.188 359.206 160.14 357.602 159.425C355.998 158.71 354.278 158.342 352.542 158.342" fill="white"/>
<path d="M336.017 172.57V186.798C336.017 188.666 336.359 190.516 337.023 192.242C337.688 193.969 338.661 195.537 339.889 196.858C341.117 198.18 342.574 199.228 344.178 199.943C345.782 200.658 347.501 201.025 349.238 201.025V158.342C347.501 158.342 345.782 158.71 344.178 159.425C342.574 160.14 341.117 161.188 339.889 162.509C338.661 163.83 337.688 165.399 337.023 167.125C336.359 168.851 336.017 170.701 336.017 172.57Z" fill="white"/>
<path d="M421.948 158.342V201.025C423.684 201.025 425.404 200.658 427.008 199.943C428.612 199.228 430.069 198.18 431.297 196.858C432.524 195.537 433.498 193.969 434.162 192.242C434.827 190.516 435.169 188.666 435.168 186.798V172.57C435.169 170.701 434.827 168.851 434.162 167.125C433.498 165.399 432.524 163.83 431.297 162.509C430.069 161.188 428.612 160.14 427.008 159.425C425.404 158.71 423.684 158.342 421.948 158.342" fill="white"/>
<path d="M405.422 172.57V186.798C405.422 188.666 405.764 190.516 406.428 192.242C407.093 193.969 408.066 195.537 409.294 196.858C410.522 198.18 411.979 199.228 413.583 199.943C415.187 200.658 416.906 201.025 418.642 201.025V158.342C416.906 158.342 415.187 158.71 413.583 159.425C411.979 160.14 410.522 161.188 409.294 162.509C408.066 163.83 407.093 165.399 406.428 167.125C405.764 168.851 405.422 170.701 405.422 172.57Z" fill="white"/>
<path d="M370.719 158.342V186.798C370.719 188.666 371.061 190.516 371.725 192.243C372.39 193.969 373.363 195.537 374.591 196.859C375.819 198.18 377.276 199.228 378.88 199.943C380.484 200.658 382.203 201.026 383.939 201.026V144.115C382.203 144.114 380.484 144.482 378.88 145.197C377.276 145.912 375.819 146.96 374.591 148.281C373.363 149.603 372.39 151.171 371.725 152.897C371.061 154.624 370.719 156.474 370.719 158.342Z" fill="white"/>
<path d="M268.914 104.38V209.541" stroke="white"/>
</svg>
