<svg xmlns="http://www.w3.org/2000/svg" xmlns:xlink="http://www.w3.org/1999/xlink" width="305.642" height="206.998" viewBox="0 0 305.642 206.998">
  <defs>
    <clipPath id="clip-path">
      <path id="Pfad_23445" data-name="Pfad 23445" d="M0-510.639H305.642v-207H0Z" transform="translate(0 717.637)" fill="none"/>
    </clipPath>
  </defs>
  <g id="Gruppe_18869" data-name="Gruppe 18869" transform="translate(0 717.637)">
    <g id="Gruppe_18869-2" data-name="Gruppe 18869" transform="translate(141.012 -717.637)">
      <path id="Pfad_23438" data-name="Pfad 23438" d="M0,0,35.995,89.511,56.2,22.936Z" fill="#f7a800"/>
    </g>
    <g id="Gruppe_18870" data-name="Gruppe 18870" transform="translate(271.854 -694.627)">
      <path id="Pfad_23439" data-name="Pfad 23439" d="M0-90.4l33.788,2.124L7.106-127.047Z" transform="translate(0 127.047)" fill="#7cb92c"/>
    </g>
    <g id="Gruppe_18871" data-name="Gruppe 18871" transform="translate(229.224 -694.876)">
      <path id="Pfad_23440" data-name="Pfad 23440" d="M-80.9-140.783l11.637-57.069L-113.7-175.358Z" transform="translate(113.696 197.852)" fill="#0099a8"/>
    </g>
    <g id="Gruppe_18872" data-name="Gruppe 18872" transform="translate(182.77 -692.823)">
      <path id="Pfad_23441" data-name="Pfad 23441" d="M-184.221-143.946-239.09-202.3-258.9-137.6Z" transform="translate(258.899 202.297)" fill="#ed7782"/>
    </g>
    <g id="Gruppe_18873" data-name="Gruppe 18873" transform="translate(182.719 -629.2)">
      <path id="Pfad_23442" data-name="Pfad 23442" d="M-188.318,0l-76.339,6.782,9.374,50.738Z" transform="translate(264.657)" fill="#662382"/>
    </g>
    <g id="Gruppe_18874" data-name="Gruppe 18874" transform="translate(147.021 -622.33)">
      <path id="Pfad_23443" data-name="Pfad 23443" d="M0-275.528H0l46.39-22.718L30.745-387.219Z" transform="translate(0 387.219)" fill="#0054a2"/>
    </g>
    <g id="Gruppe_18876" data-name="Gruppe 18876" transform="translate(0 -717.637)" clip-path="url(#clip-path)">
      <g id="Gruppe_18875" data-name="Gruppe 18875" transform="translate(0 75.947)">
        <path id="Pfad_23444" data-name="Pfad 23444" d="M-415.524-17.787l-2.575-6.389h-34.2v6.437l9.228-.012V7.883h7.382V-17.761ZM-446.492,9.186a19.054,19.054,0,0,0-6.971-1.168h-10.921V37.838h10.921a17.944,17.944,0,0,0,6.971-1.249,14.854,14.854,0,0,0,5-3.325,13.593,13.593,0,0,0,3-4.675,14.71,14.71,0,0,0,.987-5.259v-.887a15.255,15.255,0,0,0-.987-5.461,13,13,0,0,0-3-4.614,14.384,14.384,0,0,0-5-3.184m-.081,7.294a7.331,7.331,0,0,1,1.773,2.74,10.394,10.394,0,0,1,.6,3.667,10.316,10.316,0,0,1-.6,3.607,7.483,7.483,0,0,1-1.773,2.78,8.008,8.008,0,0,1-2.821,1.773,10.412,10.412,0,0,1-3.707.624h-4.675V14.183h4.675a11.08,11.08,0,0,1,3.707.584,7.712,7.712,0,0,1,2.821,1.713M-461.8,3.062h6.119V-24.176H-461.8Zm-4.2.66a8.765,8.765,0,0,0,1.307-4.858v-.61a7.349,7.349,0,0,0-1.481-4.836,8.023,8.023,0,0,0-2.976-2.1A7.5,7.5,0,0,0-467.5-10.11a7.131,7.131,0,0,0,1.5-4.749v-.653a7.875,7.875,0,0,0-2.941-6.579q-2.941-2.309-8.43-2.309h-11.937V7.883h13.2a16.156,16.156,0,0,0,6.273-1.067A8.206,8.206,0,0,0-466,3.722M-473.056-14.9a4.083,4.083,0,0,1-.915,2.788,3.748,3.748,0,0,1-2.963,1.046h-5.4v-7.755h5.4a3.748,3.748,0,0,1,2.963,1.046,4.219,4.219,0,0,1,.915,2.875m1.307,13.2a4.111,4.111,0,0,1-1,2.963,3.982,3.982,0,0,1-3.006,1.046h-6.578V-5.666h6.578a4.034,4.034,0,0,1,3.006,1.024,4.035,4.035,0,0,1,1,2.941m-17.389,15.06a8.558,8.558,0,0,0-4-3.162,16.092,16.092,0,0,0-6.131-1.067H-510.4V37.689h6.364v-9.08h4.638l6.189,9.08h7.373l-7.241-10.15a8.477,8.477,0,0,0,3.923-3.063,9.057,9.057,0,0,0,1.417-5.219v-.621a9.322,9.322,0,0,0-1.4-5.278m-5.045,5.7a4.895,4.895,0,0,1-.563,2.386,3.927,3.927,0,0,1-1.591,1.591,4.977,4.977,0,0,1-2.426.562h-5.277v-9.08h5.277a4.983,4.983,0,0,1,2.426.563,3.932,3.932,0,0,1,1.591,1.591,4.9,4.9,0,0,1,.563,2.387m-3.611-14.387h6.719l-9.881-28.852h-10.474l-9.525,28.852h6.482l2.292-7.153h12.042ZM-501.9-7.853h-8.558l3.532-11.027h1.41Zm-18.675,2.371a13.843,13.843,0,0,0,.9-4.739v-.821a14.18,14.18,0,0,0-.933-5.019,13.959,13.959,0,0,0-2.761-4.5,13.422,13.422,0,0,0-4.552-3.228A15.379,15.379,0,0,0-534.233-25a15.378,15.378,0,0,0-6.306,1.213,13.413,13.413,0,0,0-4.552,3.228,13.672,13.672,0,0,0-2.742,4.5,14.41,14.41,0,0,0-.914,5.019v.821a14.1,14.1,0,0,0,.877,4.739A14.571,14.571,0,0,0-545.2-.912a13.215,13.215,0,0,0,4.534,3.4,15.014,15.014,0,0,0,6.436,1.287A15.017,15.017,0,0,0-527.8,2.484a13.216,13.216,0,0,0,4.534-3.4,14.878,14.878,0,0,0,2.687-4.571m-5.3-5.112a9.909,9.909,0,0,1-.56,3.358,8,8,0,0,1-1.66,2.761,7.753,7.753,0,0,1-2.649,1.866,8.686,8.686,0,0,1-3.489.671,8.55,8.55,0,0,1-3.47-.671,7.785,7.785,0,0,1-2.631-1.866,7.991,7.991,0,0,1-1.66-2.761,9.913,9.913,0,0,1-.56-3.358,10.424,10.424,0,0,1,.56-3.489,7.77,7.77,0,0,1,1.66-2.761,7.479,7.479,0,0,1,2.631-1.81,8.993,8.993,0,0,1,3.47-.634,9,9,0,0,1,3.47.634,7.491,7.491,0,0,1,2.631,1.81,8.013,8.013,0,0,1,1.679,2.761,10.122,10.122,0,0,1,.578,3.489M-557.429,5.857h6.665V-24.176h-9.463l-6.788,16.868h-.782l-6.871-16.868h-9.3V5.857h6.171V-17.065l6.953,16.833h6.418l6.994-17.089Zm-20.179,4.593h-6.306l6.716,27.239h9.291l3.342-16.428,3.6,16.428h9.478l5.97-27.239h-5.97L-555.9,32.726l-.965-.021-4.515-21.247h-6.268l-3.905,21.268-.993-.011Zm32.965,5.339a16.437,16.437,0,0,0-1.042,5.721v.936a16.075,16.075,0,0,0,1,5.4,16.61,16.61,0,0,0,3.041,5.211,15.061,15.061,0,0,0,5.168,3.871,17.11,17.11,0,0,0,7.337,1.468A17.112,17.112,0,0,0-521.8,36.93a15.062,15.062,0,0,0,5.168-3.871,16.966,16.966,0,0,0,3.063-5.211,15.787,15.787,0,0,0,1.021-5.4v-.936a16.153,16.153,0,0,0-1.064-5.721,15.908,15.908,0,0,0-3.148-5.126,15.308,15.308,0,0,0-5.189-3.679A17.534,17.534,0,0,0-529.138,5.6a17.531,17.531,0,0,0-7.189,1.383,15.3,15.3,0,0,0-5.19,3.679,15.6,15.6,0,0,0-3.126,5.126m6.019,6.232a11.877,11.877,0,0,1,.638-3.977,8.857,8.857,0,0,1,1.893-3.148,8.533,8.533,0,0,1,3-2.063,10.253,10.253,0,0,1,3.956-.723,10.258,10.258,0,0,1,3.956.723,8.547,8.547,0,0,1,3,2.063,9.131,9.131,0,0,1,1.914,3.148,11.54,11.54,0,0,1,.659,3.977,11.3,11.3,0,0,1-.638,3.828A9.121,9.121,0,0,1-522.141,29a8.829,8.829,0,0,1-3.02,2.127,9.9,9.9,0,0,1-3.977.766,9.744,9.744,0,0,1-3.956-.766,8.871,8.871,0,0,1-3-2.127,9.111,9.111,0,0,1-1.893-3.148,11.294,11.294,0,0,1-.638-3.828m61.172-11.571h-6.119V37.689h16.791V32.316h-10.672Zm60.9-10.938h-9.1v8.37h6.868Z" transform="translate(583.965 24.997)" fill="#7cb92c"/>
      </g>
    </g>
  </g>
</svg>
