<svg width="1440" height="818" viewBox="0 0 1440 818" fill="none" xmlns="http://www.w3.org/2000/svg">
<g clip-path="url(#clip0_751_2)">
<path d="M-91.0601 758.351L128.979 724.888L5.92277 505.491L-91.0601 758.351Z" fill="#662583"/>
<path d="M277.629 649.166L64.2951 812.892L386.458 865.027L277.629 649.166Z" fill="#0054A2"/>
<path d="M1757.93 518.394L1199.85 717.959L1345.22 1018.52L1757.93 518.394Z" fill="#FFA42B"/>
<path d="M1418.55 327.241L1386.96 780.476L1814.88 419.691L1418.55 327.241Z" fill="#0099A8"/>
<path d="M1513.41 399.465L1210 620.986L1549.17 621.754L1513.41 399.465Z" fill="#ED7782"/>
<path d="M789.985 828.247L377.883 742L599.412 929.202L789.985 828.247Z" fill="#7CB92C"/>
<path d="M-204.278 618.4L157.118 986.269L229.457 754.998L-204.278 618.4Z" fill="#FFA42B"/>
<path d="M231.844 1011.8L563.876 752.911L277.874 801.103L231.844 1011.8Z" fill="#ED7782"/>
<path d="M1341.59 -89.5199L1386.28 94.5848L1472.84 15.5735L1341.59 -89.5199Z" fill="#662382"/>
</g>
<path d="M749 57.1311L872.533 370.552L941.875 137.441L749 57.1311Z" fill="#F7A800"/>
<path d="M1198.04 266.019L1314 273.456L1222.43 137.7L1198.04 266.019Z" fill="#7CB92C"/>
<path d="M1164.29 336.654L1204.23 136.828L1051.72 215.591L1164.29 336.654Z" fill="#0099A8"/>
<path d="M1148.6 348.332L960.294 144.006L892.308 370.552L1148.6 348.332Z" fill="#ED7782"/>
<path d="M1154.13 366.791L892.136 390.538L924.307 568.196L1154.13 366.791Z" fill="#662382"/>
<path d="M769.623 781.93L928.83 702.384L875.138 390.847L769.623 781.93Z" fill="#0054A2"/>
<path d="M145.919 450.268V353.588H171.613L195.849 411.331H198.233L222.337 353.588H248.427V450.268H229.753V367.759L232.137 368.024L206.047 430.535H186.843L160.62 368.024L163.137 367.759V450.268H145.919ZM302.74 452.785C296.383 452.785 290.777 451.769 285.921 449.739C281.065 447.708 276.959 444.971 273.604 441.527C270.249 437.996 267.688 434.022 265.922 429.608C264.245 425.193 263.406 420.602 263.406 415.834V413.053C263.406 408.109 264.289 403.429 266.055 399.015C267.909 394.512 270.514 390.538 273.869 387.095C277.312 383.563 281.462 380.826 286.318 378.884C291.174 376.853 296.648 375.838 302.74 375.838C308.833 375.838 314.307 376.853 319.163 378.884C324.019 380.826 328.124 383.563 331.48 387.095C334.923 390.538 337.528 394.512 339.293 399.015C341.059 403.429 341.942 408.109 341.942 413.053V415.834C341.942 420.602 341.059 425.193 339.293 429.608C337.616 434.022 335.1 437.996 331.744 441.527C328.389 444.971 324.284 447.708 319.428 449.739C314.572 451.769 309.009 452.785 302.74 452.785ZM302.74 437.024C307.243 437.024 311.04 436.053 314.13 434.111C317.22 432.08 319.56 429.387 321.149 426.032C322.739 422.589 323.533 418.704 323.533 414.377C323.533 409.963 322.694 406.078 321.017 402.723C319.428 399.279 317.044 396.586 313.865 394.644C310.775 392.613 307.067 391.598 302.74 391.598C298.414 391.598 294.662 392.613 291.483 394.644C288.393 396.586 286.009 399.279 284.331 402.723C282.654 406.078 281.815 409.963 281.815 414.377C281.815 418.704 282.61 422.589 284.199 426.032C285.876 429.387 288.26 432.08 291.351 434.111C294.441 436.053 298.237 437.024 302.74 437.024ZM398.985 450.268V428.946H395.939V405.239C395.939 401.089 394.924 397.999 392.893 395.968C390.862 393.938 387.728 392.922 383.49 392.922C381.282 392.922 378.634 392.967 375.543 393.055C372.453 393.143 369.319 393.276 366.14 393.452C363.05 393.54 360.269 393.673 357.797 393.849V378.222C359.827 378.045 362.123 377.868 364.683 377.692C367.244 377.515 369.848 377.427 372.497 377.427C375.234 377.339 377.795 377.295 380.179 377.295C387.595 377.295 393.732 378.266 398.588 380.208C403.532 382.151 407.24 385.197 409.712 389.347C412.273 393.496 413.553 398.926 413.553 405.636V450.268H398.985ZM375.808 452.122C370.599 452.122 366.008 451.195 362.035 449.341C358.15 447.487 355.104 444.838 352.896 441.395C350.777 437.952 349.718 433.802 349.718 428.946C349.718 423.648 350.998 419.322 353.558 415.967C356.207 412.612 359.871 410.095 364.551 408.418C369.319 406.74 374.881 405.901 381.238 405.901H397.925V416.894H380.973C376.735 416.894 373.468 417.953 371.173 420.072C368.966 422.103 367.862 424.752 367.862 428.019C367.862 431.285 368.966 433.934 371.173 435.965C373.468 437.996 376.735 439.011 380.973 439.011C383.534 439.011 385.874 438.57 387.993 437.687C390.2 436.715 392.01 435.126 393.423 432.919C394.924 430.623 395.762 427.533 395.939 423.648L400.442 428.813C400 433.846 398.764 438.084 396.734 441.527C394.791 444.971 392.054 447.62 388.522 449.474C385.079 451.24 380.841 452.122 375.808 452.122ZM432.08 450.268V353.588H450.886V450.268H432.08ZM448.238 410.007V394.114L486.91 393.982V409.875L448.238 410.007ZM448.238 369.481V353.588H488.764V369.481H448.238ZM504.621 450.268V378.354H523.03V450.268H504.621ZM494.556 392.128V378.354H523.03V392.128H494.556ZM511.376 369.746C507.756 369.746 505.063 368.819 503.297 366.964C501.619 365.022 500.781 362.638 500.781 359.813C500.781 356.811 501.619 354.383 503.297 352.529C505.063 350.674 507.756 349.747 511.376 349.747C514.996 349.747 517.645 350.674 519.322 352.529C521 354.383 521.838 356.811 521.838 359.813C521.838 362.638 521 365.022 519.322 366.964C517.645 368.819 514.996 369.746 511.376 369.746ZM541.598 450.268V378.354H556.166V409.212H554.841C554.841 401.884 555.813 395.792 557.755 390.936C559.698 385.991 562.567 382.283 566.364 379.811C570.249 377.339 575.06 376.103 580.799 376.103H581.594C590.158 376.103 596.648 378.884 601.063 384.446C605.477 389.92 607.685 398.132 607.685 409.08V450.268H589.276V407.491C589.276 403.076 587.995 399.5 585.435 396.763C582.963 394.026 579.519 392.657 575.105 392.657C570.602 392.657 566.938 394.07 564.112 396.896C561.375 399.633 560.007 403.341 560.007 408.02V450.268H541.598ZM654.626 452.652C649.593 452.652 644.958 451.725 640.72 449.871C636.482 448.017 632.818 445.412 629.727 442.057C626.637 438.702 624.253 434.817 622.576 430.403C620.898 425.9 620.059 421.044 620.059 415.834V413.053C620.059 407.932 620.854 403.12 622.443 398.617C624.121 394.114 626.416 390.185 629.33 386.83C632.332 383.475 635.908 380.87 640.057 379.016C644.296 377.074 648.975 376.103 654.096 376.103C659.747 376.103 664.691 377.339 668.929 379.811C673.255 382.195 676.699 385.815 679.259 390.671C681.82 395.527 683.232 401.619 683.497 408.947L678.067 402.59V353.588H696.476V450.268H681.908V419.675H685.087C684.822 427.003 683.321 433.14 680.584 438.084C677.847 442.94 674.227 446.604 669.724 449.076C665.309 451.46 660.276 452.652 654.626 452.652ZM658.731 437.157C662.351 437.157 665.662 436.362 668.664 434.773C671.666 433.095 674.05 430.712 675.816 427.621C677.67 424.443 678.597 420.734 678.597 416.496V411.199C678.597 406.961 677.67 403.429 675.816 400.604C673.962 397.69 671.534 395.483 668.532 393.982C665.53 392.393 662.263 391.598 658.731 391.598C654.758 391.598 651.226 392.569 648.136 394.512C645.134 396.366 642.75 399.015 640.985 402.458C639.307 405.901 638.468 409.919 638.468 414.51C638.468 419.101 639.351 423.118 641.117 426.562C642.883 429.917 645.267 432.522 648.269 434.376C651.359 436.23 654.846 437.157 658.731 437.157ZM746.964 452.785C740.784 452.785 735.354 451.725 730.675 449.606C726.083 447.487 722.243 444.662 719.152 441.13C716.15 437.51 713.855 433.493 712.266 429.078C710.765 424.663 710.014 420.161 710.014 415.569V413.053C710.014 408.285 710.765 403.694 712.266 399.279C713.855 394.777 716.15 390.803 719.152 387.36C722.243 383.828 726.039 381.047 730.542 379.016C735.045 376.897 740.254 375.838 746.17 375.838C753.94 375.838 760.429 377.559 765.638 381.003C770.936 384.358 774.909 388.817 777.558 394.379C780.207 399.853 781.531 405.769 781.531 412.126V418.748H717.828V407.491H770.009L764.314 413.053C764.314 408.462 763.652 404.533 762.327 401.266C761.003 397.999 758.972 395.483 756.235 393.717C753.586 391.951 750.231 391.068 746.17 391.068C742.108 391.068 738.665 391.995 735.84 393.849C733.014 395.704 730.851 398.396 729.35 401.928C727.937 405.372 727.231 409.521 727.231 414.377C727.231 418.88 727.937 422.898 729.35 426.429C730.763 429.873 732.926 432.61 735.84 434.641C738.753 436.583 742.462 437.554 746.964 437.554C751.467 437.554 755.132 436.671 757.957 434.905C760.782 433.051 762.592 430.8 763.387 428.151H780.339C779.28 433.095 777.249 437.422 774.247 441.13C771.245 444.838 767.404 447.708 762.725 449.739C758.133 451.769 752.88 452.785 746.964 452.785ZM794.261 450.268V378.354H808.829V408.815H808.432C808.432 398.485 810.639 390.671 815.054 385.373C819.468 380.076 825.958 377.427 834.522 377.427H837.171V393.452H832.138C825.958 393.452 821.146 395.13 817.702 398.485C814.347 401.752 812.67 406.519 812.67 412.788V450.268H794.261Z" fill="#7CB92C"/>
<defs>
<clipPath id="clip0_751_2">
<rect width="1440" height="818" fill="white"/>
</clipPath>
</defs>
</svg>
