<svg width="369" height="64" viewBox="0 0 369 64" fill="none" xmlns="http://www.w3.org/2000/svg">
<rect width="369" height="64" fill="#F5F5F5"/>
<rect width="1440" height="4967" transform="translate(-924 -1428)" fill="white"/>
<rect y="0.00012207" width="374" height="64" fill="#0099A8"/>
<path d="M32.99 42.5401C31.03 42.5401 29.34 42.1901 27.92 41.4901C26.5 40.7901 25.33 39.8701 24.41 38.7301C23.49 37.5901 22.8 36.3701 22.34 35.0701C21.9 33.7701 21.68 32.5201 21.68 31.3201V30.6601C21.68 29.3601 21.91 28.0501 22.37 26.7301C22.83 25.4101 23.53 24.2101 24.47 23.1301C25.41 22.0301 26.58 21.1501 27.98 20.4901C29.4 19.8301 31.07 19.5001 32.99 19.5001C34.91 19.5001 36.57 19.8301 37.97 20.4901C39.39 21.1501 40.57 22.0301 41.51 23.1301C42.45 24.2101 43.15 25.4101 43.61 26.7301C44.07 28.0501 44.3 29.3601 44.3 30.6601V31.3201C44.3 32.5201 44.07 33.7701 43.61 35.0701C43.17 36.3701 42.49 37.5901 41.57 38.7301C40.65 39.8701 39.48 40.7901 38.06 41.4901C36.64 42.1901 34.95 42.5401 32.99 42.5401ZM32.99 39.8401C34.27 39.8401 35.42 39.6001 36.44 39.1201C37.48 38.6401 38.36 37.9901 39.08 37.1701C39.8 36.3301 40.35 35.3901 40.73 34.3501C41.11 33.2901 41.3 32.1801 41.3 31.0201C41.3 29.8001 41.11 28.6601 40.73 27.6001C40.35 26.5401 39.8 25.6101 39.08 24.8101C38.36 23.9901 37.48 23.3501 36.44 22.8901C35.42 22.4301 34.27 22.2001 32.99 22.2001C31.71 22.2001 30.55 22.4301 29.51 22.8901C28.49 23.3501 27.62 23.9901 26.9 24.8101C26.18 25.6101 25.63 26.5401 25.25 27.6001C24.87 28.6601 24.68 29.8001 24.68 31.0201C24.68 32.1801 24.87 33.2901 25.25 34.3501C25.63 35.3901 26.18 36.3301 26.9 37.1701C27.62 37.9901 28.49 38.6401 29.51 39.1201C30.55 39.6001 31.71 39.8401 32.99 39.8401ZM48.717 42.0001V25.9801H50.997V32.5801H50.877C50.877 30.2401 51.387 28.5301 52.407 27.4501C53.447 26.3501 54.997 25.8001 57.057 25.8001H57.597V28.3801H56.577C54.977 28.3801 53.747 28.8101 52.887 29.6701C52.027 30.5101 51.597 31.7301 51.597 33.3301V42.0001H48.717ZM67.5547 42.1801C66.3547 42.1801 65.3147 42.0101 64.4347 41.6701C63.5747 41.3301 62.9047 40.7501 62.4247 39.9301C61.9647 39.0901 61.7347 37.9601 61.7347 36.5401V21.1201H64.4947V36.9001C64.4947 37.7601 64.7247 38.4301 65.1847 38.9101C65.6647 39.3701 66.3347 39.6001 67.1947 39.6001H70.0147V42.1801H67.5547ZM58.9747 28.1401V25.9801H70.0147V28.1401H58.9747ZM80.7809 42.5401C79.3809 42.5401 78.1709 42.3001 77.1509 41.8201C76.1309 41.3401 75.3009 40.7101 74.6609 39.9301C74.0209 39.1301 73.5409 38.2401 73.2209 37.2601C72.9209 36.2801 72.7709 35.2801 72.7709 34.2601V33.7201C72.7709 32.6801 72.9209 31.6701 73.2209 30.6901C73.5409 29.7101 74.0209 28.8301 74.6609 28.0501C75.3009 27.2501 76.1109 26.6201 77.0909 26.1601C78.0909 25.6801 79.2609 25.4401 80.6009 25.4401C82.3409 25.4401 83.7709 25.8201 84.8909 26.5801C86.0309 27.3201 86.8709 28.2801 87.4109 29.4601C87.9709 30.6401 88.2509 31.9001 88.2509 33.2401V34.5301H74.0309V32.3701H86.1509L85.4909 33.5401C85.4909 32.4001 85.3109 31.4201 84.9509 30.6001C84.5909 29.7601 84.0509 29.1101 83.3309 28.6501C82.6109 28.1901 81.7009 27.9601 80.6009 27.9601C79.4609 27.9601 78.5109 28.2201 77.7509 28.7401C77.0109 29.2601 76.4509 29.9701 76.0709 30.8701C75.7109 31.7701 75.5309 32.8101 75.5309 33.9901C75.5309 35.1301 75.7109 36.1601 76.0709 37.0801C76.4509 37.9801 77.0309 38.7001 77.8109 39.2401C78.5909 39.7601 79.5809 40.0201 80.7809 40.0201C82.0409 40.0201 83.0609 39.7401 83.8409 39.1801C84.6409 38.6201 85.1209 37.9701 85.2809 37.2301H87.9809C87.7609 38.3301 87.3209 39.2801 86.6609 40.0801C86.0009 40.8801 85.1709 41.4901 84.1709 41.9101C83.1709 42.3301 82.0409 42.5401 80.7809 42.5401Z" fill="white"/>
<path d="M347 45L327.947 19.5L366.053 19.5L347 45Z" fill="white"/>
<path d="M347 45L327.947 19.5L366.053 19.5L347 45Z" fill="white"/>
</svg>
