<svg width="95" height="51" viewBox="0 0 95 51" fill="none" xmlns="http://www.w3.org/2000/svg">
<path d="M94.0386 25.3081C94.0386 18.612 91.5669 12.1902 87.1674 7.45538C82.7679 2.72055 76.8008 0.0605469 70.5789 0.0605469H23.6596C17.4377 0.0605469 11.4707 2.72055 7.07112 7.45538C2.67158 12.1902 0.199951 18.612 0.199951 25.3081C0.199951 32.0042 2.67158 38.426 7.07112 43.1608C11.4707 47.8956 17.4377 50.5556 23.6596 50.5556H70.5789C76.8008 50.5556 82.7679 47.8956 87.1674 43.1608C91.5669 38.426 94.0386 32.0042 94.0386 25.3081ZM20.0082 37.685C19.1317 37.685 18.2639 37.4992 17.4542 37.1382C16.6444 36.7772 15.9087 36.2481 15.289 35.5811C14.6693 34.9141 14.1778 34.1222 13.8425 33.2507C13.5072 32.3792 13.3347 31.4452 13.3348 30.502V23.3211C13.3347 22.3779 13.5072 21.4438 13.8425 20.5723C14.1778 19.7009 14.6693 18.909 15.289 18.242C15.9087 17.575 16.6444 17.0458 17.4542 16.6848C18.2639 16.3238 19.1317 16.138 20.0082 16.138V37.685ZM28.3509 23.32H21.6765V16.138C23.4467 16.138 25.1443 16.8948 26.396 18.2419C27.6477 19.589 28.3509 21.416 28.3509 23.3211M37.5268 37.6861C36.6501 37.6864 35.7819 37.5008 34.9719 37.1399C34.1619 36.7789 33.4259 36.2498 32.806 35.5826C32.186 34.9154 31.6943 34.1233 31.359 33.2516C31.0236 32.3798 30.8511 31.4455 30.8514 30.502V23.3211C30.8512 22.3779 31.0238 21.4438 31.3591 20.5723C31.6944 19.7009 32.1859 18.909 32.8056 18.242C33.4253 17.575 34.161 17.0458 34.9707 16.6848C35.7804 16.3238 36.6483 16.138 37.5247 16.138V37.685L37.5268 37.6861ZM45.8685 30.502H39.1941V16.138C40.9643 16.138 42.6619 16.8948 43.9136 18.2419C45.1653 19.589 45.8685 21.416 45.8685 23.3211V30.502ZM55.0444 37.685C53.2744 37.6847 51.577 36.9278 50.3256 35.5808C49.0741 34.2337 48.371 32.4068 48.371 30.502V16.138C48.371 14.2335 49.074 12.4069 50.3253 11.06C51.5765 9.71317 53.2737 8.95637 55.0434 8.95608V37.685H55.0444ZM63.3871 16.138C62.5107 16.1382 61.6429 15.9525 60.8332 15.5916C60.0235 15.2308 59.2878 14.7018 58.6681 14.0348C58.0484 13.3679 57.5568 12.5761 57.2215 11.7047C56.8862 10.8332 56.7136 9.89927 56.7138 8.95608H63.3871V16.138ZM63.3871 23.3211H56.7138V16.138C57.5902 16.138 58.4581 16.3238 59.2678 16.6848C60.0775 17.0458 60.8132 17.575 61.4329 18.242C62.0526 18.909 62.5442 19.7009 62.8795 20.5723C63.2148 21.4438 63.3873 22.3779 63.3871 23.3211ZM72.563 37.6861C71.6864 37.6861 70.8185 37.5003 70.0086 37.1392C69.1988 36.7782 68.4629 36.249 67.8432 35.5819C67.2234 34.9147 66.7318 34.1228 66.3964 33.2511C66.061 32.3795 65.8885 31.4453 65.8886 30.502V23.3211C65.8886 21.4162 66.5917 19.5894 67.8432 18.2423C69.0946 16.8952 70.792 16.1383 72.562 16.138V37.685L72.563 37.6861ZM80.9037 30.502C80.9039 31.4451 80.7314 32.379 80.3961 33.2505C80.0609 34.1219 79.5694 34.9137 78.9499 35.5807C78.3303 36.2477 77.5947 36.7768 76.7851 37.1379C75.9755 37.499 75.1077 37.6849 74.2314 37.685V16.138C75.1077 16.1382 75.9755 16.3241 76.7851 16.6852C77.5947 17.0462 78.3303 17.5754 78.9499 18.2424C79.5694 18.9094 80.0609 19.7012 80.3961 20.5726C80.7314 21.444 80.9039 22.378 80.9037 23.3211V30.502Z" fill="white"/>
</svg>
