<svg xmlns="http://www.w3.org/2000/svg" xmlns:xlink="http://www.w3.org/1999/xlink" width="422.89" height="188.807" viewBox="0 0 422.89 188.807">
  <defs>
    <clipPath id="clip-path">
      <path id="Pfad_23190" data-name="Pfad 23190" d="M0,39.658H260.39V-136.693H0Z" transform="translate(0 136.693)" fill="none"/>
    </clipPath>
    <clipPath id="clip-path-7">
      <path id="Pfad_23223" data-name="Pfad 23223" d="M0,29.012H130.136V-22.4H0Z" transform="translate(0 22.4)" fill="none"/>
    </clipPath>
  </defs>
  <g id="Logo_Footer" transform="translate(-158 -10140.693)">
    <g id="Moabit.World-Logo" transform="translate(158 10140.693)">
      <g id="Gruppe_18527" data-name="Gruppe 18527" transform="translate(120.133 0.002)">
        <path id="Pfad_23181" data-name="Pfad 23181" d="M6.9,17.149,24.108-39.57-23.77-59.108Z" transform="translate(23.77 59.108)" fill="#fff"/>
      </g>
      <g id="Gruppe_18528" data-name="Gruppe 18528" transform="translate(231.605 19.603)">
        <path id="Pfad_23182" data-name="Pfad 23182" d="M0,7.021,28.785,8.829,6.055-24.2Z" transform="translate(0 24.2)" fill="#fff"/>
      </g>
      <g id="Gruppe_18529" data-name="Gruppe 18529" transform="translate(195.287 19.39)">
        <path id="Pfad_23183" data-name="Pfad 23183" d="M6.283,10.934,16.2-37.688-21.656-18.523Z" transform="translate(21.656 37.688)" fill="#fff"/>
      </g>
      <g id="Gruppe_18530" data-name="Gruppe 18530" transform="translate(155.71 21.141)">
        <path id="Pfad_23184" data-name="Pfad 23184" d="M14.307,11.179-32.438-38.533-49.314,16.584Z" transform="translate(49.314 38.533)" fill="#fff"/>
      </g>
      <g id="Gruppe_18531" data-name="Gruppe 18531" transform="translate(155.666 75.344)">
        <path id="Pfad_23185" data-name="Pfad 23185" d="M14.626,0-50.411,5.778-42.424,49Z" transform="translate(50.411)" fill="#fff"/>
      </g>
      <g id="Gruppe_18532" data-name="Gruppe 18532" transform="translate(125.255 81.195)">
        <path id="Pfad_23186" data-name="Pfad 23186" d="M0,21.4H0L39.523,2.044l-13.33-75.8Z" transform="translate(0 73.757)" fill="#fff"/>
      </g>
      <g id="Gruppe_18533" data-name="Gruppe 18533" transform="translate(0.043 94.903)">
        <path id="Pfad_23187" data-name="Pfad 23187" d="M0,0,5.722,23.206h7.916L18.183.858H13.86l-3.33,18.12H9.689L5.372,0Z" fill="#fff"/>
      </g>
      <g id="Gruppe_18534" data-name="Gruppe 18534" transform="translate(14.698 94.903)">
        <path id="Pfad_23188" data-name="Pfad 23188" d="M2.917,5.219,8-17.987H2.917L-.994,1.722.055.991H-2.71l1.208.732L-5.508-17.129h-4.545L-5.158,5.219Z" transform="translate(10.053 17.987)" fill="#fff"/>
      </g>
      <g id="Gruppe_18536" data-name="Gruppe 18536" transform="translate(0 0)" clip-path="url(#clip-path)">
        <g id="Gruppe_18535" data-name="Gruppe 18535" transform="translate(32.612 90.772)">
          <path id="Pfad_23189" data-name="Pfad 23189" d="M6.349,3.227v-.8a13.765,13.765,0,0,0-.906-4.874A13.581,13.581,0,0,0,2.761-6.811,13.051,13.051,0,0,0-1.661-9.946a14.943,14.943,0,0,0-6.124-1.177,14.943,14.943,0,0,0-6.124,1.177A13.038,13.038,0,0,0-18.33-6.811a13.285,13.285,0,0,0-2.664,4.367,14,14,0,0,0-.888,4.874v.8a13.7,13.7,0,0,0,.851,4.6,14.145,14.145,0,0,0,2.592,4.439,12.832,12.832,0,0,0,4.4,3.3,14.575,14.575,0,0,0,6.251,1.25,14.585,14.585,0,0,0,6.252-1.25,12.827,12.827,0,0,0,4.4-3.3,14.454,14.454,0,0,0,2.61-4.439,13.459,13.459,0,0,0,.87-4.6M.333,2.865A9.619,9.619,0,0,1-.21,6.126,7.768,7.768,0,0,1-1.823,8.808,7.54,7.54,0,0,1-4.4,10.62a8.432,8.432,0,0,1-3.388.653,8.3,8.3,0,0,1-3.37-.653A7.581,7.581,0,0,1-13.71,8.808a7.768,7.768,0,0,1-1.613-2.682,9.65,9.65,0,0,1-.543-3.261,10.147,10.147,0,0,1,.543-3.388A7.559,7.559,0,0,1-13.71-3.205a7.268,7.268,0,0,1,2.556-1.757,8.732,8.732,0,0,1,3.37-.617,8.737,8.737,0,0,1,3.37.617A7.268,7.268,0,0,1-1.859-3.205,7.792,7.792,0,0,1-.228-.523,9.829,9.829,0,0,1,.333,2.865" transform="translate(21.882 11.123)" fill="#fff"/>
        </g>
      </g>
      <path id="Pfad_23191" data-name="Pfad 23191" d="M54-64.006H48.576v24.332H54Z" transform="translate(14.093 157.782)" fill="#fff"/>
      <g id="Gruppe_18537" data-name="Gruppe 18537" transform="translate(70.241 107.728)">
        <path id="Pfad_23192" data-name="Pfad 23192" d="M3,2.334-4.4-8.046h-5.951l7.075,10.38Z" transform="translate(10.353 8.046)" fill="#fff"/>
      </g>
      <g id="Gruppe_18539" data-name="Gruppe 18539" transform="translate(0 0)" clip-path="url(#clip-path)">
        <g id="Gruppe_18538" data-name="Gruppe 18538" transform="translate(66.638 93.776)">
          <path id="Pfad_23193" data-name="Pfad 23193" d="M1.241,3.732a14.031,14.031,0,0,0,5.207-.876A7.234,7.234,0,0,0,9.853.211a7.712,7.712,0,0,0,1.208-4.447v-.529a7.943,7.943,0,0,0-1.191-4.5,7.292,7.292,0,0,0-3.4-2.694,13.706,13.706,0,0,0-5.224-.91h-5.52v4.6h5.95a4.253,4.253,0,0,1,2.067.479A3.352,3.352,0,0,1,5.092-6.434,4.166,4.166,0,0,1,5.572-4.4a4.162,4.162,0,0,1-.48,2.033A3.344,3.344,0,0,1,3.738-1.012a4.239,4.239,0,0,1-2.067.479h-5.95V3.732Z" transform="translate(4.279 12.864)" fill="#fff"/>
        </g>
      </g>
      <path id="Pfad_23195" data-name="Pfad 23195" d="M71.508-63.132H66.295v23.206h5.213Z" transform="translate(19.234 158.035)" fill="#fff"/>
      <path id="Pfad_23196" data-name="Pfad 23196" d="M79.571-48.693H69.843v4.577h9.728Z" transform="translate(20.263 162.224)" fill="#fff"/>
      <g id="Gruppe_18541" data-name="Gruppe 18541" transform="translate(0 0)" clip-path="url(#clip-path)">
        <g id="Gruppe_18540" data-name="Gruppe 18540" transform="translate(106.819 92.83)">
          <path id="Pfad_23197" data-name="Pfad 23197" d="M.981,5.713A15.292,15.292,0,0,0,6.92,4.649a12.678,12.678,0,0,0,4.257-2.832,11.609,11.609,0,0,0,2.557-3.983,12.524,12.524,0,0,0,.841-4.481V-7.4a12.978,12.978,0,0,0-.841-4.652,11.079,11.079,0,0,0-2.557-3.931A12.279,12.279,0,0,0,6.92-18.7a16.244,16.244,0,0,0-5.94-.995H-3.38v5.252H1.29a9.443,9.443,0,0,1,3.158.5,6.572,6.572,0,0,1,2.4,1.459,6.244,6.244,0,0,1,1.509,2.335,8.82,8.82,0,0,1,.516,3.123,8.762,8.762,0,0,1-.516,3.073A6.375,6.375,0,0,1,6.852-1.582a6.824,6.824,0,0,1-2.4,1.511A8.882,8.882,0,0,1,1.29.46H-3.38V5.713Z" transform="translate(3.38 19.692)" fill="#fff"/>
        </g>
      </g>
      <path id="Pfad_23199" data-name="Pfad 23199" d="M84.6-64.739h-5.63v25.405H84.6Z" transform="translate(22.91 157.569)" fill="#fff"/>
      <g id="Gruppe_18542" data-name="Gruppe 18542" transform="translate(0 65.402)">
        <path id="Pfad_23200" data-name="Pfad 23200" d="M4.548,0-1.236,14.371H-1.9L-7.755,0h-7.921V25.586h5.257V5.958L-4.494,20.4H.973L6.931,5.8V25.586H12.61V0Z" transform="translate(15.676)" fill="#fff"/>
      </g>
      <g id="Gruppe_18544" data-name="Gruppe 18544" transform="translate(0 0)" clip-path="url(#clip-path)">
        <g id="Gruppe_18543" data-name="Gruppe 18543" transform="translate(30.003 64.704)">
          <path id="Pfad_23201" data-name="Pfad 23201" d="M5.569,2.831v-.7a12.083,12.083,0,0,0-.795-4.275,11.912,11.912,0,0,0-2.352-3.83A11.453,11.453,0,0,0-1.456-8.725,13.125,13.125,0,0,0-6.829-9.757,13.115,13.115,0,0,0-12.2-8.725a11.44,11.44,0,0,0-3.878,2.751,11.646,11.646,0,0,0-2.336,3.83A12.266,12.266,0,0,0-19.2,2.132v.7a12.015,12.015,0,0,0,.747,4.037,12.44,12.44,0,0,0,2.273,3.895,11.276,11.276,0,0,0,3.863,2.892,12.78,12.78,0,0,0,5.483,1.1,12.786,12.786,0,0,0,5.484-1.1,11.276,11.276,0,0,0,3.863-2.892A12.717,12.717,0,0,0,4.807,6.868a11.8,11.8,0,0,0,.762-4.037M.292,2.513a8.424,8.424,0,0,1-.477,2.86A6.82,6.82,0,0,1-1.6,7.727,6.624,6.624,0,0,1-3.857,9.316a7.416,7.416,0,0,1-2.972.572,7.3,7.3,0,0,1-2.956-.572,6.644,6.644,0,0,1-2.241-1.589,6.823,6.823,0,0,1-1.415-2.353,8.455,8.455,0,0,1-.476-2.86,8.889,8.889,0,0,1,.476-2.972,6.637,6.637,0,0,1,1.415-2.353A6.383,6.383,0,0,1-9.785-4.354a7.66,7.66,0,0,1,2.956-.541,7.671,7.671,0,0,1,2.957.541A6.406,6.406,0,0,1-1.631-2.812,6.845,6.845,0,0,1-.2-.459,8.635,8.635,0,0,1,.292,2.513" transform="translate(19.195 9.757)" fill="#fff"/>
        </g>
      </g>
      <g id="Gruppe_18545" data-name="Gruppe 18545" transform="translate(53.682 65.402)">
        <path id="Pfad_23203" data-name="Pfad 23203" d="M1.242,5.528,7.876-15.248l-1.819.708H10.4L8.65-15.248l6.8,20.776h5.724L12.757-19.053H3.835L-4.28,5.528Z" transform="translate(4.28 19.053)" fill="#fff"/>
      </g>
      <g id="Gruppe_18546" data-name="Gruppe 18546" transform="translate(59.843 79.308)">
        <path id="Pfad_23204" data-name="Pfad 23204" d="M2.931,1.03,1.213-3.55H-8.417L-10.1,1.03Z" transform="translate(10.101 3.55)" fill="#fff"/>
      </g>
      <g id="Gruppe_18548" data-name="Gruppe 18548" transform="translate(0 0)" clip-path="url(#clip-path)">
        <g id="Gruppe_18547" data-name="Gruppe 18547" transform="translate(85.841 77.497)">
          <path id="Pfad_23205" data-name="Pfad 23205" d="M1.36,3.422a13.775,13.775,0,0,0,5.345-.91A7,7,0,0,0,9.972-.123,7.466,7.466,0,0,0,11.085-4.26v-.52A6.269,6.269,0,0,0,9.824-8.9a7.13,7.13,0,0,0-3.452-2.207A16.746,16.746,0,0,0,1.36-11.8H-4.689V-8.12H1.657a3.432,3.432,0,0,1,2.561.872,3.436,3.436,0,0,1,.854,2.505,3.5,3.5,0,0,1-.854,2.523,3.392,3.392,0,0,1-2.561.89H-4.689V3.422Z" transform="translate(4.689 11.796)" fill="#fff"/>
        </g>
      </g>
      <path id="Pfad_23207" data-name="Pfad 23207" d="M68.447-86.146H62.509v27.5h5.938Z" transform="translate(18.136 151.358)" fill="#fff"/>
      <g id="Gruppe_18550" data-name="Gruppe 18550" transform="translate(0 0)" clip-path="url(#clip-path)">
        <g id="Gruppe_18549" data-name="Gruppe 18549" transform="translate(85.841 65.211)">
          <path id="Pfad_23208" data-name="Pfad 23208" d="M1.118,3.372a17.336,17.336,0,0,0,4.955-.649A7,7,0,0,0,9.525.552a6.077,6.077,0,0,0,1.281-4.046v-.557A6.709,6.709,0,0,0,8.3-9.656q-2.506-1.968-7.182-1.967H-3.855v4.752H1.49a3.194,3.194,0,0,1,2.523.89,3.591,3.591,0,0,1,.779,2.45,3.476,3.476,0,0,1-.779,2.375A3.2,3.2,0,0,1,1.49-.265H-3.855V3.372Z" transform="translate(3.855 11.623)" fill="#fff"/>
        </g>
      </g>
      <path id="Pfad_23210" data-name="Pfad 23210" d="M85.887-86H80.674v23.206h5.213Z" transform="translate(23.406 151.401)" fill="#fff"/>
      <path id="Pfad_23211" data-name="Pfad 23211" d="M99.327-82.342H93.038v22.6h6.289Z" transform="translate(26.993 152.462)" fill="#fff"/>
      <g id="Gruppe_18551" data-name="Gruppe 18551" transform="translate(112.17 65.403)">
        <path id="Pfad_23212" data-name="Pfad 23212" d="M7.046,1.224,4.852-4.219H-24.287V1.264Z" transform="translate(24.287 4.219)" fill="#fff"/>
      </g>
      <g id="Gruppe_18552" data-name="Gruppe 18552" transform="translate(134.873 85.583)">
        <path id="Pfad_23213" data-name="Pfad 23213" d="M1.316,1.6l1.9-7.132H-4.535V1.6Z" transform="translate(4.535 5.528)" fill="#fff"/>
      </g>
    </g>
    <g id="Plattform_REFO" data-name="Plattform REFO" transform="translate(-31 2781)">
      <path id="Pfad_23430" data-name="Pfad 23430" d="M8.06,13.66V12.32h3.4a3.654,3.654,0,0,0,1.92-.45,2.8,2.8,0,0,0,1.1-1.2A3.809,3.809,0,0,0,14.84,9a3.856,3.856,0,0,0-.36-1.69,2.744,2.744,0,0,0-1.1-1.19,3.721,3.721,0,0,0-1.92-.44H8.06V4.34H11.2a6.443,6.443,0,0,1,2.91.58,3.934,3.934,0,0,1,1.72,1.6,4.715,4.715,0,0,1,.57,2.34v.28a4.731,4.731,0,0,1-.57,2.33,3.917,3.917,0,0,1-1.72,1.61,6.443,6.443,0,0,1-2.91.58ZM6.94,19V4.34H8.46V19ZM19.3,19V4.4h1.5V19ZM17.76,5.62V4.4H20.8V5.62ZM31.12,19V15.82h-.24V12.06a2.473,2.473,0,0,0-.62-1.81,2.591,2.591,0,0,0-1.92-.63q-.6,0-1.21.02t-1.16.05q-.55.03-.97.07V8.44l.9-.08q.46-.04.95-.05t.95-.01a7.085,7.085,0,0,1,2.61.4,2.752,2.752,0,0,1,1.45,1.25,4.729,4.729,0,0,1,.46,2.25V19Zm-3.58.28a4.646,4.646,0,0,1-1.98-.4,3.016,3.016,0,0,1-1.33-1.16,3.432,3.432,0,0,1-.47-1.84,3.187,3.187,0,0,1,.49-1.8,3.071,3.071,0,0,1,1.42-1.13,5.812,5.812,0,0,1,2.25-.39h3.1V13.7h-3.2a2.77,2.77,0,0,0-1.93.61,2.05,2.05,0,0,0-.67,1.59,1.972,1.972,0,0,0,.7,1.59,2.854,2.854,0,0,0,1.9.59,3.813,3.813,0,0,0,1.42-.27,2.526,2.526,0,0,0,1.14-.92,3.258,3.258,0,0,0,.5-1.79l.44.62a4.312,4.312,0,0,1-.56,1.97,3.067,3.067,0,0,1-1.3,1.19A4.332,4.332,0,0,1,27.54,19.28Zm12.36-.16A5.106,5.106,0,0,1,38,18.8a2.439,2.439,0,0,1-1.24-1.09,4.169,4.169,0,0,1-.44-2.07V5.08h1.44V15.86a1.886,1.886,0,0,0,.5,1.41,1.944,1.944,0,0,0,1.42.49h1.9v1.36ZM34.42,9.56V8.42h7.16V9.56Zm13.9,9.56a5.106,5.106,0,0,1-1.9-.32,2.439,2.439,0,0,1-1.24-1.09,4.169,4.169,0,0,1-.44-2.07V5.08h1.44V15.86a1.886,1.886,0,0,0,.5,1.41,1.944,1.944,0,0,0,1.42.49H50v1.36ZM42.84,9.56V8.42H50V9.56ZM53.2,19V7.6a3.207,3.207,0,0,1,.86-2.46,3.669,3.669,0,0,1,2.58-.8h1.34V5.62H56.36a1.734,1.734,0,0,0-1.28.44,1.677,1.677,0,0,0-.44,1.24V19ZM51.66,9.66V8.5H58.2V9.66Zm13.38,9.68a5.705,5.705,0,0,1-2.39-.47,5.218,5.218,0,0,1-1.74-1.26,5.659,5.659,0,0,1-1.45-3.77v-.28a5.568,5.568,0,0,1,.38-2.01,5.484,5.484,0,0,1,1.1-1.77,5.4,5.4,0,0,1,1.75-1.25,6.16,6.16,0,0,1,4.72,0,5.4,5.4,0,0,1,1.75,1.25,5.345,5.345,0,0,1,1.09,1.77,5.7,5.7,0,0,1,.37,2.01v.28a5.758,5.758,0,0,1-.36,2,5.426,5.426,0,0,1-1.07,1.77,5.193,5.193,0,0,1-1.75,1.26A5.774,5.774,0,0,1,65.04,19.34Zm0-1.34a4.014,4.014,0,0,0,2.23-.59,3.876,3.876,0,0,0,1.39-1.56,5.053,5.053,0,0,0-.01-4.32,3.785,3.785,0,0,0-1.41-1.54,4.492,4.492,0,0,0-4.38,0,3.785,3.785,0,0,0-1.41,1.54,5.053,5.053,0,0,0-.01,4.32,3.876,3.876,0,0,0,1.39,1.56A3.976,3.976,0,0,0,65.04,18Zm8.64,1V8.42h1.2v4.42h-.12a4.94,4.94,0,0,1,1.02-3.43,4.15,4.15,0,0,1,3.2-1.11h.34V9.66H78.7a3.573,3.573,0,0,0-2.62.89,3.514,3.514,0,0,0-.9,2.61V19Zm8.06,0V8.4h1.2v4.46H82.7a6.981,6.981,0,0,1,.41-2.52,3.547,3.547,0,0,1,1.23-1.65,3.473,3.473,0,0,1,2.08-.59h.06a3.516,3.516,0,0,1,2.08.58,3.425,3.425,0,0,1,1.22,1.64,7.2,7.2,0,0,1,.4,2.54H89.7a6.981,6.981,0,0,1,.41-2.52A3.311,3.311,0,0,1,93.44,8.1h.06a3.563,3.563,0,0,1,2.09.58,3.459,3.459,0,0,1,1.24,1.64,7.044,7.044,0,0,1,.41,2.54V19h-1.5V12.52a3.371,3.371,0,0,0-.68-2.22,2.4,2.4,0,0,0-1.96-.82,2.679,2.679,0,0,0-2.09.85,3.282,3.282,0,0,0-.77,2.29V19h-1.5V12.52a3.371,3.371,0,0,0-.68-2.22,2.4,2.4,0,0,0-1.96-.82,2.679,2.679,0,0,0-2.09.85,3.282,3.282,0,0,0-.77,2.29V19Zm28.24.34a5.059,5.059,0,0,1-2.11-.43,4.879,4.879,0,0,1-1.64-1.2,5.493,5.493,0,0,1-1.06-1.76,5.978,5.978,0,0,1-.37-2.11v-.28a6.01,6.01,0,0,1,.36-2.07,5.538,5.538,0,0,1,1.03-1.76,4.847,4.847,0,0,1,3.75-1.67,4.691,4.691,0,0,1,2.36.58,4.341,4.341,0,0,1,1.64,1.67,5.622,5.622,0,0,1,.66,2.67l-.66-1.24V4.4h1.5V19h-1.2V14.3h.48a5.808,5.808,0,0,1-.69,2.79,4.27,4.27,0,0,1-1.7,1.69A4.914,4.914,0,0,1,109.98,19.34Zm.2-1.32a3.968,3.968,0,0,0,1.95-.48,3.472,3.472,0,0,0,1.37-1.37,4.114,4.114,0,0,0,.5-2.05v-.96a3.813,3.813,0,0,0-.5-1.97,3.55,3.55,0,0,0-1.37-1.33,4.009,4.009,0,0,0-1.97-.48,3.656,3.656,0,0,0-2.05.57,3.749,3.749,0,0,0-1.34,1.55,5.023,5.023,0,0,0-.47,2.2,5.029,5.029,0,0,0,.48,2.24,3.656,3.656,0,0,0,1.36,1.53A3.768,3.768,0,0,0,110.18,18.02Zm13.56,1.32a5.5,5.5,0,0,1-2.36-.47,4.578,4.578,0,0,1-1.64-1.26,5.349,5.349,0,0,1-.95-1.77,6.658,6.658,0,0,1-.31-2.02v-.28a6.593,6.593,0,0,1,.31-2,5.238,5.238,0,0,1,.95-1.76,4.7,4.7,0,0,1,1.61-1.25,5.151,5.151,0,0,1,2.27-.47,4.888,4.888,0,0,1,2.77.74,4.737,4.737,0,0,1,1.67,1.89,5.567,5.567,0,0,1,.56,2.47v.78h-9.46V12.78h8.42l-.38.58a4.9,4.9,0,0,0-.41-2.07,3.239,3.239,0,0,0-1.2-1.4,3.562,3.562,0,0,0-1.97-.51,3.48,3.48,0,0,0-2.06.58,3.553,3.553,0,0,0-1.23,1.54,5.5,5.5,0,0,0-.41,2.18,5.671,5.671,0,0,0,.41,2.19,3.453,3.453,0,0,0,1.26,1.57,4.286,4.286,0,0,0,4.39-.05,2.568,2.568,0,0,0,1.06-1.49h1.4a3.956,3.956,0,0,1-.84,1.83,4.239,4.239,0,0,1-1.62,1.19A5.64,5.64,0,0,1,123.74,19.34ZM131.5,19V8.42h1.2v4.42h-.12a4.94,4.94,0,0,1,1.02-3.43,4.15,4.15,0,0,1,3.2-1.11h.34V9.66h-.62a3.573,3.573,0,0,0-2.62.89,3.514,3.514,0,0,0-.9,2.61V19Z" transform="translate(474.75 7453)" fill="#fff"/>
      <g id="REFO-Logo" transform="translate(481 7511.795)">
        <g id="Gruppe_18563" data-name="Gruppe 18563" transform="translate(0 -22.4)" clip-path="url(#clip-path-7)">
          <g id="Gruppe_18554" data-name="Gruppe 18554" transform="translate(16.066 12.853)">
            <path id="Pfad_23214" data-name="Pfad 23214" d="M0,0V12.853H12.853A12.852,12.852,0,0,0,0,0" fill="#fff"/>
          </g>
          <g id="Gruppe_18555" data-name="Gruppe 18555" transform="translate(0 12.853)">
            <path id="Pfad_23215" data-name="Pfad 23215" d="M0,7.253V20.106A12.852,12.852,0,0,0,12.853,32.959V-5.6A12.852,12.852,0,0,0,0,7.253" transform="translate(0 5.6)" fill="#fff"/>
          </g>
          <g id="Gruppe_18556" data-name="Gruppe 18556" transform="translate(83.544 0)">
            <path id="Pfad_23216" data-name="Pfad 23216" d="M7.253,7.253V-5.6H-5.6A12.852,12.852,0,0,0,7.253,7.253" transform="translate(5.6 5.6)" fill="#fff"/>
          </g>
          <g id="Gruppe_18557" data-name="Gruppe 18557" transform="translate(83.544 12.853)">
            <path id="Pfad_23217" data-name="Pfad 23217" d="M0,0V12.853H12.853A12.852,12.852,0,0,0,0,0" fill="#fff"/>
          </g>
          <g id="Gruppe_18558" data-name="Gruppe 18558" transform="translate(49.805 12.853)">
            <path id="Pfad_23218" data-name="Pfad 23218" d="M0,0V25.706H12.853V12.853A12.852,12.852,0,0,0,0,0" fill="#fff"/>
          </g>
          <g id="Gruppe_18559" data-name="Gruppe 18559" transform="translate(33.739 12.853)">
            <path id="Pfad_23219" data-name="Pfad 23219" d="M0,7.253V20.106A12.852,12.852,0,0,0,12.853,32.959V-5.6A12.852,12.852,0,0,0,0,7.253" transform="translate(0 5.6)" fill="#fff"/>
          </g>
          <g id="Gruppe_18560" data-name="Gruppe 18560" transform="translate(117.283 12.853)">
            <path id="Pfad_23220" data-name="Pfad 23220" d="M0,0V38.559A12.852,12.852,0,0,0,12.853,25.706V12.853A12.852,12.852,0,0,0,0,0" fill="#fff"/>
          </g>
          <g id="Gruppe_18561" data-name="Gruppe 18561" transform="translate(101.216 12.853)">
            <path id="Pfad_23221" data-name="Pfad 23221" d="M0,7.253V20.106A12.852,12.852,0,0,0,12.853,32.959V-5.6A12.852,12.852,0,0,0,0,7.253" transform="translate(0 5.6)" fill="#fff"/>
          </g>
          <g id="Gruppe_18562" data-name="Gruppe 18562" transform="translate(67.477 0)">
            <path id="Pfad_23222" data-name="Pfad 23222" d="M0,7.253V32.959A12.852,12.852,0,0,0,12.853,45.812V-5.6A12.852,12.852,0,0,0,0,7.253" transform="translate(0 5.6)" fill="#fff"/>
          </g>
        </g>
      </g>
    </g>
    <line id="Linie_240" data-name="Linie 240" y2="95" transform="translate(418.5 10234.5)" fill="none" stroke="#fff" stroke-width="1"/>
  </g>
</svg>
