<svg width="369" height="64" viewBox="0 0 369 64" fill="none" xmlns="http://www.w3.org/2000/svg">
<rect width="369" height="64" fill="#F5F5F5"/>
<rect width="1440" height="4967" transform="translate(-534 -1506)" fill="white"/>
<rect y="0.00012207" width="374" height="64" fill="#0099A8"/>
<path d="M30.29 42.5401C28.47 42.5401 26.92 42.2401 25.64 41.6401C24.36 41.0401 23.38 40.2101 22.7 39.1501C22.02 38.0901 21.68 36.8901 21.68 35.5501H24.62C24.62 36.2101 24.79 36.8701 25.13 37.5301C25.49 38.1901 26.08 38.7401 26.9 39.1801C27.74 39.6201 28.87 39.8401 30.29 39.8401C31.61 39.8401 32.69 39.6501 33.53 39.2701C34.37 38.8701 34.99 38.3601 35.39 37.7401C35.79 37.1001 35.99 36.4101 35.99 35.6701C35.99 34.7701 35.6 34.0301 34.82 33.4501C34.04 32.8501 32.9 32.4801 31.4 32.3401L28.97 32.1301C27.03 31.9701 25.48 31.3701 24.32 30.3301C23.16 29.2901 22.58 27.9201 22.58 26.2201C22.58 24.8801 22.9 23.7101 23.54 22.7101C24.2 21.7101 25.11 20.9301 26.27 20.3701C27.43 19.7901 28.78 19.5001 30.32 19.5001C31.84 19.5001 33.18 19.7801 34.34 20.3401C35.5 20.9001 36.4 21.6901 37.04 22.7101C37.7 23.7101 38.03 24.9101 38.03 26.3101H35.09C35.09 25.6101 34.92 24.9501 34.58 24.3301C34.26 23.7101 33.75 23.2001 33.05 22.8001C32.35 22.4001 31.44 22.2001 30.32 22.2001C29.24 22.2001 28.34 22.3901 27.62 22.7701C26.92 23.1501 26.39 23.6501 26.03 24.2701C25.69 24.8701 25.52 25.5201 25.52 26.2201C25.52 27.0201 25.83 27.7301 26.45 28.3501C27.07 28.9701 27.99 29.3301 29.21 29.4301L31.64 29.6401C33.14 29.7601 34.43 30.0801 35.51 30.6001C36.61 31.1001 37.45 31.7801 38.03 32.6401C38.63 33.4801 38.93 34.4901 38.93 35.6701C38.93 37.0101 38.57 38.2001 37.85 39.2401C37.13 40.2801 36.12 41.0901 34.82 41.6701C33.52 42.2501 32.01 42.5401 30.29 42.5401ZM43.4436 48.0001V25.9801H45.7236V32.9101L45.1836 32.8501C45.2836 31.1301 45.6436 29.7301 46.2636 28.6501C46.9036 27.5501 47.7336 26.7401 48.7536 26.2201C49.7736 25.7001 50.8836 25.4401 52.0836 25.4401C53.2436 25.4401 54.2936 25.6601 55.2336 26.1001C56.1936 26.5401 57.0136 27.1401 57.6936 27.9001C58.3736 28.6601 58.8936 29.5401 59.2536 30.5401C59.6136 31.5401 59.7936 32.6001 59.7936 33.7201V34.2601C59.7936 35.3801 59.6036 36.4401 59.2236 37.4401C58.8436 38.4401 58.3036 39.3201 57.6036 40.0801C56.9236 40.8401 56.1036 41.4401 55.1436 41.8801C54.2036 42.3201 53.1636 42.5401 52.0236 42.5401C50.8836 42.5401 49.7936 42.2901 48.7536 41.7901C47.7136 41.2901 46.8536 40.4801 46.1736 39.3601C45.4936 38.2401 45.1036 36.7701 45.0036 34.9501L46.3236 37.3501V48.0001H43.4436ZM51.5736 40.0201C52.6536 40.0201 53.5936 39.7701 54.3936 39.2701C55.1936 38.7501 55.8136 38.0401 56.2536 37.1401C56.6936 36.2201 56.9136 35.1701 56.9136 33.9901C56.9136 32.7901 56.6936 31.7401 56.2536 30.8401C55.8136 29.9401 55.1936 29.2401 54.3936 28.7401C53.5936 28.2201 52.6536 27.9601 51.5736 27.9601C50.6136 27.9601 49.7236 28.1801 48.9036 28.6201C48.0836 29.0401 47.4236 29.6601 46.9236 30.4801C46.4436 31.2801 46.2036 32.2501 46.2036 33.3901V34.7701C46.2036 35.8701 46.4536 36.8101 46.9536 37.5901C47.4536 38.3701 48.1136 38.9701 48.9336 39.3901C49.7536 39.8101 50.6336 40.0201 51.5736 40.0201ZM64.1272 42.0001V25.9801H66.4072V32.5801H66.2872C66.2872 30.2401 66.7972 28.5301 67.8172 27.4501C68.8572 26.3501 70.4072 25.8001 72.4672 25.8001H73.0072V28.3801H71.9872C70.3872 28.3801 69.1572 28.8101 68.2972 29.6701C67.4372 30.5101 67.0072 31.7301 67.0072 33.3301V42.0001H64.1272ZM86.0633 42.0001V37.2001H85.5833V31.6501C85.5833 30.5501 85.2933 29.7201 84.7133 29.1601C84.1533 28.6001 83.3233 28.3201 82.2233 28.3201C81.6033 28.3201 80.9633 28.3301 80.3033 28.3501C79.6433 28.3701 79.0133 28.3901 78.4133 28.4101C77.8133 28.4301 77.2933 28.4601 76.8533 28.5001V25.9801C77.2933 25.9401 77.7533 25.9101 78.2333 25.8901C78.7333 25.8501 79.2433 25.8301 79.7633 25.8301C80.2833 25.8101 80.7833 25.8001 81.2633 25.8001C82.9033 25.8001 84.2433 26.0001 85.2833 26.4001C86.3233 26.7801 87.0933 27.4101 87.5933 28.2901C88.0933 29.1701 88.3433 30.3601 88.3433 31.8601V42.0001H86.0633ZM80.8133 42.4201C79.6133 42.4201 78.5733 42.2201 77.6933 41.8201C76.8333 41.4001 76.1633 40.8001 75.6833 40.0201C75.2233 39.2401 74.9933 38.3001 74.9933 37.2001C74.9933 36.0601 75.2433 35.1101 75.7433 34.3501C76.2633 33.5901 77.0133 33.0201 77.9933 32.6401C78.9733 32.2401 80.1533 32.0401 81.5333 32.0401H85.8833V34.2001H81.4133C80.2533 34.2001 79.3633 34.4801 78.7433 35.0401C78.1233 35.6001 77.8133 36.3201 77.8133 37.2001C77.8133 38.0801 78.1233 38.7901 78.7433 39.3301C79.3633 39.8701 80.2533 40.1401 81.4133 40.1401C82.0933 40.1401 82.7433 40.0201 83.3633 39.7801C83.9833 39.5201 84.4933 39.1001 84.8933 38.5201C85.3133 37.9201 85.5433 37.1001 85.5833 36.0601L86.3633 37.2001C86.2633 38.3401 85.9833 39.3001 85.5233 40.0801C85.0833 40.8401 84.4633 41.4201 83.6633 41.8201C82.8833 42.2201 81.9333 42.4201 80.8133 42.4201ZM100.499 42.5401C99.1191 42.5401 97.9191 42.3001 96.8991 41.8201C95.8991 41.3401 95.0691 40.7001 94.4091 39.9001C93.7491 39.0801 93.2491 38.1801 92.9091 37.2001C92.5891 36.2201 92.4291 35.2401 92.4291 34.2601V33.7201C92.4291 32.7001 92.5891 31.7001 92.9091 30.7201C93.2491 29.7401 93.7491 28.8601 94.4091 28.0801C95.0891 27.2801 95.9291 26.6401 96.9291 26.1601C97.9291 25.6801 99.0991 25.4401 100.439 25.4401C101.779 25.4401 102.979 25.6901 104.039 26.1901C105.119 26.6901 105.979 27.4001 106.619 28.3201C107.279 29.2201 107.649 30.2901 107.729 31.5301H104.969C104.829 30.5301 104.369 29.7001 103.589 29.0401C102.809 28.3601 101.759 28.0201 100.439 28.0201C99.2991 28.0201 98.3491 28.2801 97.5891 28.8001C96.8291 29.3201 96.2591 30.0301 95.8791 30.9301C95.4991 31.8301 95.3091 32.8501 95.3091 33.9901C95.3091 35.0901 95.4991 36.1001 95.8791 37.0201C96.2591 37.9201 96.8291 38.6401 97.5891 39.1801C98.3691 39.7001 99.3391 39.9601 100.499 39.9601C101.399 39.9601 102.179 39.8001 102.839 39.4801C103.499 39.1601 104.029 38.7301 104.429 38.1901C104.829 37.6501 105.069 37.0401 105.149 36.3601H107.909C107.849 37.6201 107.479 38.7101 106.799 39.6301C106.139 40.5501 105.259 41.2701 104.159 41.7901C103.079 42.2901 101.859 42.5401 100.499 42.5401ZM111.823 42.0001V20.1001H114.703V33.1801H113.983C113.983 31.6001 114.183 30.2401 114.583 29.1001C115.003 27.9401 115.643 27.0501 116.503 26.4301C117.363 25.8101 118.463 25.5001 119.803 25.5001H119.923C121.843 25.5001 123.293 26.1401 124.273 27.4201C125.253 28.6801 125.743 30.4901 125.743 32.8501V42.0001H122.863V32.2501C122.863 30.9501 122.493 29.9401 121.753 29.2201C121.033 28.5001 120.093 28.1401 118.933 28.1401C117.653 28.1401 116.623 28.5701 115.843 29.4301C115.083 30.2701 114.703 31.3801 114.703 32.7601V42.0001H111.823ZM137.822 42.5401C136.422 42.5401 135.212 42.3001 134.192 41.8201C133.172 41.3401 132.342 40.7101 131.702 39.9301C131.062 39.1301 130.582 38.2401 130.262 37.2601C129.962 36.2801 129.812 35.2801 129.812 34.2601V33.7201C129.812 32.6801 129.962 31.6701 130.262 30.6901C130.582 29.7101 131.062 28.8301 131.702 28.0501C132.342 27.2501 133.152 26.6201 134.132 26.1601C135.132 25.6801 136.302 25.4401 137.642 25.4401C139.382 25.4401 140.812 25.8201 141.932 26.5801C143.072 27.3201 143.912 28.2801 144.452 29.4601C145.012 30.6401 145.292 31.9001 145.292 33.2401V34.5301H131.072V32.3701H143.192L142.532 33.5401C142.532 32.4001 142.352 31.4201 141.992 30.6001C141.632 29.7601 141.092 29.1101 140.372 28.6501C139.652 28.1901 138.742 27.9601 137.642 27.9601C136.502 27.9601 135.552 28.2201 134.792 28.7401C134.052 29.2601 133.492 29.9701 133.112 30.8701C132.752 31.7701 132.572 32.8101 132.572 33.9901C132.572 35.1301 132.752 36.1601 133.112 37.0801C133.492 37.9801 134.072 38.7001 134.852 39.2401C135.632 39.7601 136.622 40.0201 137.822 40.0201C139.082 40.0201 140.102 39.7401 140.882 39.1801C141.682 38.6201 142.162 37.9701 142.322 37.2301H145.022C144.802 38.3301 144.362 39.2801 143.702 40.0801C143.042 40.8801 142.212 41.4901 141.212 41.9101C140.212 42.3301 139.082 42.5401 137.822 42.5401ZM149.381 42.0001V25.9801H151.661V32.8501H151.301C151.301 31.2701 151.511 29.9401 151.931 28.8601C152.371 27.7601 153.031 26.9301 153.911 26.3701C154.791 25.7901 155.901 25.5001 157.241 25.5001H157.361C159.381 25.5001 160.871 26.1301 161.831 27.3901C162.811 28.6501 163.301 30.4701 163.301 32.8501V42.0001H160.421V32.2501C160.421 31.0101 160.071 30.0201 159.371 29.2801C158.671 28.5201 157.711 28.1401 156.491 28.1401C155.231 28.1401 154.211 28.5301 153.431 29.3101C152.651 30.0901 152.261 31.1301 152.261 32.4301V42.0001H149.381Z" fill="white"/>
<path d="M345.5 45L326.014 19.5L364.986 19.5L345.5 45Z" fill="white"/>
<path d="M345.5 45L326.014 19.5L364.986 19.5L345.5 45Z" fill="white"/>
</svg>
