<svg width="372" height="108" viewBox="0 0 372 108" fill="none" xmlns="http://www.w3.org/2000/svg">
<rect width="372" height="108" fill="#F5F5F5"/>
<rect width="1440" height="4967" transform="translate(-924 -972)" fill="white"/>
<rect width="372" height="108" fill="#ED7782"/>
<path d="M127.874 70.874C124.838 70.874 122.277 70.3987 120.192 69.448C118.107 68.4667 116.527 67.148 115.454 65.492C114.381 63.8053 113.844 61.8733 113.844 59.696H121.158C121.158 60.5547 121.388 61.352 121.848 62.088C122.339 62.824 123.075 63.422 124.056 63.882C125.037 64.3113 126.31 64.526 127.874 64.526C129.285 64.526 130.465 64.342 131.416 63.974C132.367 63.606 133.087 63.1 133.578 62.456C134.069 61.7813 134.314 61.0147 134.314 60.156C134.314 59.0827 133.854 58.2393 132.934 57.626C132.014 56.982 130.527 56.568 128.472 56.384L125.942 56.154C122.599 55.878 119.931 54.8353 117.938 53.026C115.945 51.2167 114.948 48.8247 114.948 45.85C114.948 43.7033 115.454 41.848 116.466 40.284C117.509 38.72 118.95 37.524 120.79 36.696C122.63 35.8373 124.807 35.408 127.322 35.408C129.959 35.408 132.213 35.868 134.084 36.788C135.985 37.6773 137.442 38.95 138.454 40.606C139.466 42.2313 139.972 44.148 139.972 46.356H132.612C132.612 45.528 132.413 44.7767 132.014 44.102C131.615 43.3967 131.017 42.8293 130.22 42.4C129.453 41.9707 128.487 41.756 127.322 41.756C126.218 41.756 125.283 41.94 124.516 42.308C123.78 42.676 123.228 43.182 122.86 43.826C122.492 44.4393 122.308 45.114 122.308 45.85C122.308 46.8007 122.645 47.6287 123.32 48.334C123.995 49.0393 125.099 49.4533 126.632 49.576L129.208 49.806C131.661 50.0207 133.823 50.5573 135.694 51.416C137.565 52.244 139.021 53.394 140.064 54.866C141.137 56.3073 141.674 58.0707 141.674 60.156C141.674 62.3027 141.107 64.1887 139.972 65.814C138.868 67.4087 137.289 68.6507 135.234 69.54C133.179 70.4293 130.726 70.874 127.874 70.874ZM154.968 70.782C152.054 70.782 149.816 69.8467 148.252 67.976C146.688 66.0747 145.906 63.2227 145.906 59.42V44.792H153.266V59.788C153.266 61.1373 153.649 62.2107 154.416 63.008C155.182 63.8053 156.21 64.204 157.498 64.204C158.816 64.204 159.89 63.79 160.718 62.962C161.546 62.134 161.96 61.0147 161.96 59.604V44.792H169.32V70H163.478V59.374H163.984C163.984 61.9193 163.646 64.0507 162.972 65.768C162.328 67.4547 161.362 68.712 160.074 69.54C158.786 70.368 157.191 70.782 155.29 70.782H154.968ZM187.422 70.874C185.245 70.874 183.343 70.5213 181.718 69.816C180.123 69.08 178.789 68.0987 177.716 66.872C176.643 65.6453 175.845 64.2653 175.324 62.732C174.803 61.168 174.542 59.558 174.542 57.902V57.028C174.542 55.3107 174.818 53.67 175.37 52.106C175.922 50.5113 176.735 49.1007 177.808 47.874C178.881 46.6473 180.215 45.6813 181.81 44.976C183.435 44.2707 185.291 43.918 187.376 43.918C189.645 43.918 191.654 44.3627 193.402 45.252C195.15 46.1107 196.545 47.322 197.588 48.886C198.631 50.45 199.213 52.244 199.336 54.268H192.114C191.991 53.1333 191.531 52.1827 190.734 51.416C189.967 50.6187 188.848 50.22 187.376 50.22C186.149 50.22 185.122 50.5267 184.294 51.14C183.497 51.7533 182.899 52.5967 182.5 53.67C182.101 54.7433 181.902 56.016 181.902 57.488C181.902 58.8373 182.086 60.064 182.454 61.168C182.822 62.2413 183.405 63.0847 184.202 63.698C185.03 64.2807 186.103 64.572 187.422 64.572C188.403 64.572 189.231 64.4033 189.906 64.066C190.611 63.698 191.163 63.2073 191.562 62.594C191.991 61.95 192.252 61.214 192.344 60.386H199.52C199.428 62.4713 198.845 64.3113 197.772 65.906C196.699 67.47 195.273 68.6967 193.494 69.586C191.715 70.4447 189.691 70.874 187.422 70.874ZM204.227 70V36.42H211.587V55.786H210.483C210.483 53.2407 210.805 51.094 211.449 49.346C212.093 47.598 213.044 46.2793 214.301 45.39C215.558 44.47 217.138 44.01 219.039 44.01H219.361C222.152 44.01 224.283 45.0067 225.755 47C227.227 48.9627 227.963 51.8453 227.963 55.648V70H220.603V55.188C220.603 53.808 220.189 52.704 219.361 51.876C218.564 51.0173 217.506 50.588 216.187 50.588C214.807 50.588 213.688 51.0327 212.829 51.922C212.001 52.8113 211.587 53.992 211.587 55.464V70H204.227ZM245.781 70.874C243.634 70.874 241.733 70.506 240.077 69.77C238.452 69.034 237.087 68.0527 235.983 66.826C234.91 65.5687 234.082 64.1733 233.499 62.64C232.947 61.076 232.671 59.4813 232.671 57.856V56.936C232.671 55.2493 232.947 53.6393 233.499 52.106C234.082 50.542 234.91 49.1467 235.983 47.92C237.056 46.6933 238.39 45.7273 239.985 45.022C241.61 44.286 243.45 43.918 245.505 43.918C248.204 43.918 250.473 44.5313 252.313 45.758C254.184 46.954 255.61 48.5333 256.591 50.496C257.572 52.428 258.063 54.544 258.063 56.844V59.328H235.753V55.142H253.601L251.209 57.074C251.209 55.5713 250.994 54.2833 250.565 53.21C250.136 52.1367 249.492 51.324 248.633 50.772C247.805 50.1893 246.762 49.898 245.505 49.898C244.217 49.898 243.128 50.1893 242.239 50.772C241.35 51.3547 240.675 52.2133 240.215 53.348C239.755 54.452 239.525 55.8167 239.525 57.442C239.525 58.9447 239.74 60.2633 240.169 61.398C240.598 62.502 241.273 63.3607 242.193 63.974C243.113 64.5873 244.309 64.894 245.781 64.894C247.13 64.894 248.234 64.6333 249.093 64.112C249.952 63.5907 250.534 62.9467 250.841 62.18H257.603C257.235 63.8667 256.514 65.3693 255.441 66.688C254.368 68.0067 253.018 69.034 251.393 69.77C249.768 70.506 247.897 70.874 245.781 70.874Z" fill="white"/>
<circle cx="61" cy="48" r="21" stroke="white" stroke-width="10"/>
<path d="M73 62L97 87" stroke="white" stroke-width="10"/>
</svg>
