<svg width="51" height="54" viewBox="0 0 51 54" fill="none" xmlns="http://www.w3.org/2000/svg">
<path fill-rule="evenodd" clip-rule="evenodd" d="M0.657166 26.9892C0.657166 32.2436 2.10496 37.3801 4.81746 41.749C7.52996 46.118 11.3853 49.5231 15.8961 51.5339C20.4068 53.5447 25.3703 54.0708 30.1588 53.0457C34.9474 52.0206 39.346 49.4904 42.7983 45.7749C46.2507 42.0594 48.6018 37.3256 49.5543 32.1721C50.5068 27.0186 50.0179 21.6769 48.1495 16.8224C46.2811 11.9679 43.1171 7.8187 39.0575 4.89947C34.998 1.98025 30.2253 0.422119 25.3429 0.422119C18.7958 0.422119 12.5169 3.22114 7.88744 8.20343C3.25797 13.1857 0.657166 19.9431 0.657166 26.9892H0.657166ZM20.8172 39.1657L21.2368 32.3934L32.6838 21.2761C33.1857 20.7957 32.5737 20.5622 31.9072 20.9972L17.7798 30.589L11.6783 28.5389C10.3607 28.105 10.3515 27.1298 11.9745 26.429L35.752 16.5627C36.8382 16.0325 37.8863 16.8439 37.4718 18.6327L33.4223 39.1657C33.1395 40.6247 32.3207 40.9745 31.1852 40.3004L25.0137 35.3954L22.0515 38.5016L22.0237 38.5303C21.8801 38.7273 21.697 38.8867 21.488 38.9968C21.2791 39.1068 21.0498 39.1646 20.8172 39.1657Z" fill="white"/>
</svg>
