<svg width="2020" height="1109" viewBox="0 0 2020 1109" fill="none" xmlns="http://www.w3.org/2000/svg">
<path d="M113.94 848.351L333.979 814.888L210.923 595.491L113.94 848.351Z" fill="#662583"/>
<path d="M482.629 739.166L269.295 902.892L591.458 955.027L482.629 739.166Z" fill="#0054A2"/>
<path d="M1962.93 608.394L1404.85 807.959L1550.22 1108.52L1962.93 608.394Z" fill="#FFA42B"/>
<path d="M1623.55 417.241L1591.96 870.476L2019.88 509.691L1623.55 417.241Z" fill="#0099A8"/>
<path d="M1718.41 489.465L1415 710.986L1754.17 711.754L1718.41 489.465Z" fill="#ED7782"/>
<path d="M994.986 918.247L582.883 832L804.412 1019.2L994.986 918.247Z" fill="#7CB92C"/>
<path d="M0.721802 708.4L362.118 1076.27L434.457 844.998L0.721802 708.4Z" fill="#FFA42B"/>
<path d="M436.844 1101.8L768.876 842.911L482.874 891.102L436.844 1101.8Z" fill="#ED7782"/>
<path d="M1546.59 0.47998L1591.28 184.585L1677.84 105.573L1546.59 0.47998Z" fill="#662382"/>
<path d="M954 147.131L1077.53 460.552L1146.88 227.441L954 147.131Z" fill="#F7A800"/>
<path d="M1403.04 356.019L1519 363.456L1427.43 227.7L1403.04 356.019Z" fill="#7CB92C"/>
<path d="M1369.29 426.654L1409.23 226.828L1256.72 305.591L1369.29 426.654Z" fill="#0099A8"/>
<path d="M1353.6 438.332L1165.29 234.006L1097.31 460.552L1353.6 438.332Z" fill="#ED7782"/>
<path d="M1359.13 456.791L1097.14 480.538L1129.31 658.196L1359.13 456.791Z" fill="#662382"/>
<path d="M974.623 871.93L1133.83 792.384L1080.14 480.847L974.623 871.93Z" fill="#0054A2"/>
</svg>
